<?xml version="1.0" encoding="UTF-8" standalone="no"?>
<!-- Generator: Adobe Illustrator 21.1.0, SVG Export Plug-In . SVG Version: 6.00 Build 0)  -->

<svg
   xmlns:dc="http://purl.org/dc/elements/1.1/"
   xmlns:cc="http://creativecommons.org/ns#"
   xmlns:rdf="http://www.w3.org/1999/02/22-rdf-syntax-ns#"
   xmlns:svg="http://www.w3.org/2000/svg"
   xmlns="http://www.w3.org/2000/svg"
   xmlns:sodipodi="http://sodipodi.sourceforge.net/DTD/sodipodi-0.dtd"
   xmlns:inkscape="http://www.inkscape.org/namespaces/inkscape"
   version="1.1"
   id="Layer_1"
   x="0px"
   y="0px"
   viewBox="0 0 15.9 16.1"
   style="enable-background:new 0 0 15.9 16.1;"
   xml:space="preserve"
   sodipodi:docname="logo_tunqui_mini.svg"
   inkscape:version="0.92.4 (unknown)"><metadata
   id="metadata987"><rdf:RDF><cc:Work
       rdf:about=""><dc:format>image/svg+xml</dc:format><dc:type
         rdf:resource="http://purl.org/dc/dcmitype/StillImage" /><dc:title /></cc:Work></rdf:RDF></metadata><defs
   id="defs985">
	
		<linearGradient
   gradientTransform="matrix(1,0,0,-1,0,31)"
   y2="14.224"
   x2="13.6548"
   y1="29.8906"
   x1="2.4048"
   gradientUnits="userSpaceOnUse"
   id="SVGID_1_">
		<stop
   id="stop971"
   style="stop-color:#04BEFE"
   offset="0" />
		<stop
   id="stop973"
   style="stop-color:#19A6F1"
   offset="0.5044" />
		<stop
   id="stop975"
   style="stop-color:#318BE3"
   offset="1" />
	</linearGradient>
	
</defs><sodipodi:namedview
   pagecolor="#ffffff"
   bordercolor="#666666"
   borderopacity="1"
   objecttolerance="10"
   gridtolerance="10"
   guidetolerance="10"
   inkscape:pageopacity="0"
   inkscape:pageshadow="2"
   inkscape:window-width="1920"
   inkscape:window-height="1016"
   id="namedview983"
   showgrid="false"
   inkscape:zoom="29.348755"
   inkscape:cx="13.068832"
   inkscape:cy="11.485539"
   inkscape:window-x="1600"
   inkscape:window-y="27"
   inkscape:window-maximized="1"
   inkscape:current-layer="Layer_1" />
<style
   type="text/css"
   id="style969">
	.st0{fill:url(#SVGID_1_);}
</style>

<ellipse
   ry="7.9998355"
   rx="8"
   cy="8.1000719"
   cx="8"
   id="ellipse1778"
   style="opacity:1;fill:none;fill-opacity:0.97231834;stroke:none;stroke-width:0.13700254;stroke-linecap:round;stroke-linejoin:round;stroke-miterlimit:4;stroke-dasharray:none;stroke-dashoffset:0;stroke-opacity:1" /><g
   transform="matrix(0.55937688,0,0,0.55937688,0.01838671,-149.93139)"
   id="g392"><path
     inkscape:connector-curvature="0"
     id="path49"
     style="fill:#000000;fill-opacity:1;fill-rule:evenodd;stroke:#ffffff;stroke-width:0.47475615;stroke-linecap:butt;stroke-linejoin:miter;stroke-miterlimit:22.92558479;stroke-dasharray:none;stroke-opacity:1"
     d="m 24.992725,288.88788 c 0.572217,-1.88976 -0.307209,-2.4636 0.272153,-3.80533 0.558865,-1.29336 1.759319,-0.91899 1.264938,-3.15065 -0.459752,-2.07691 -1.342839,-0.4255 -1.493865,-3.01564 -0.08621,-1.49038 0.909568,-2.28393 -0.583046,-3.05768 -0.954871,-0.49505 -1.513914,0.10836 -2.324994,-1.4029 -1.3392,-2.49629 -0.241275,-2.19737 -3.221479,-2.83255 -2.488612,-0.53026 -2.063111,0.42005 -4.359258,-1.41838 -0.406009,-0.25467 -0.825325,-0.24346 -1.257211,-0.005 -0.813559,1.72462 -3.3164836,1.09911 -5.4479411,1.32 l -1.7189279,3.15766 c -1.2158389,1.00324 -2.0898162,0.58863 -2.7979871,2.18324 -0.7378672,1.66231 0.2821563,1.668 -0.4986244,3.66084 -0.5175807,1.32248 -1.0053095,1.01413 -1.1536779,3.11933 l 1.7527331,5.59895 2.8534266,1.65797 c 0.768992,0.89374 0.7585648,2.15211 1.917668,2.63629 1.594697,0.66613 1.4617343,-0.63179 3.4586887,0.25556 1.041659,0.46304 1.126661,1.43173 2.776285,1.21792 1.937785,-0.25094 0.784442,-1.19367 3.001035,-1.42963 1.190005,-0.12678 2.166512,0.39051 3.086082,-0.33626 1.355388,-1.07133 0.448923,-1.77615 1.793861,-2.80185 1.360009,-1.03665 1.146667,0.19336 2.680141,-1.55147 z" /><path
     inkscape:connector-curvature="0"
     id="path51"
     style="fill:none;stroke:#ffffff;stroke-width:1.2658304;stroke-linecap:butt;stroke-linejoin:miter;stroke-miterlimit:22.92558479;stroke-dasharray:none;stroke-opacity:1"
     d="m 14.158514,273.11762 c 5.197288,0 9.41059,4.21319 9.41059,9.41054 0,5.19731 -4.213302,9.41061 -9.41059,9.41061 -5.1973106,0 -9.4106122,-4.2133 -9.4106122,-9.41061 0,-5.19735 4.2133016,-9.41054 9.4106122,-9.41054 z" /><path
     inkscape:connector-curvature="0"
     id="path53"
     style="fill:#000000;fill-opacity:1;fill-rule:evenodd;stroke:none;stroke-width:0.22327806"
     d="m 14.159898,273.11706 c 5.197288,0 9.410612,4.21323 9.410612,9.41061 0,5.19736 -4.213324,9.41068 -9.410612,9.41068 -5.1973775,0 -9.4106791,-4.21332 -9.4106791,-9.41068 0,-5.19738 4.2133016,-9.41061 9.4106791,-9.41061" /><g
     transform="matrix(0,0.2188125,0.22327806,0,-19.88304,429.03141)"
     id="g55"><path
       inkscape:connector-curvature="0"
       id="path57"
       style="fill:none;stroke:#ffffff;stroke-width:2.87229991;stroke-linecap:butt;stroke-linejoin:miter;stroke-miterlimit:22.92558479;stroke-dasharray:none;stroke-opacity:1"
       d="m -708.6557,152.4626 c 0,21.4469 17.4163,38.8329 38.9009,38.8329 21.4841,0 38.9007,-17.386 38.9007,-38.8329 0,-21.4464 -17.4166,-38.8327 -38.9007,-38.8327 -21.4846,0 -38.9009,17.3863 -38.9009,38.8327 z" /></g><path
     inkscape:connector-curvature="0"
     id="path59"
     style="fill:#000000;fill-opacity:1;fill-rule:evenodd;stroke:none;stroke-width:0.22327806"
     d="m 14.159898,273.96844 c 4.788623,0 8.670535,3.81098 8.670535,8.51207 0,4.70097 -3.881912,8.51195 -8.670535,8.51195 -4.7885776,0 -8.6705568,-3.81098 -8.6705568,-8.51195 0,-4.70109 3.8819792,-8.51207 8.6705568,-8.51207" /><path
     inkscape:connector-curvature="0"
     id="path61"
     style="fill:#ffffff;fill-opacity:1;fill-rule:nonzero;stroke:none;stroke-width:0.22327806"
     d="m 17.646943,279.02207 c 0.02056,0.21254 -0.155959,0.3395 -0.529683,0.37931 -0.295843,0.0315 -1.0104,-0.0368 -2.145389,-0.20613 -0.485585,0.36316 -0.706719,0.77683 -0.661662,1.24247 0.02183,0.22551 0.111639,0.37337 0.269362,0.44178 0.21312,-0.0407 0.375711,-0.0679 0.484692,-0.0794 0.31614,-0.0336 0.478731,-0.0116 0.486389,0.0679 0.0049,0.0503 -0.0767,0.0852 -0.243283,0.10291 -0.213365,0.0227 -0.448477,0.0149 -0.703795,-0.0218 -0.332908,0.0879 -0.712101,0.26595 -1.137669,0.53417 -1.083367,0.68899 -1.582282,1.48306 -1.494824,2.38673 0.05792,0.59875 0.406076,0.94525 1.044495,1.03963 -0.130752,-0.18114 -0.208341,-0.39748 -0.232835,-0.65056 -0.06044,-0.62469 0.189184,-1.23154 0.750438,-1.82073 0.559557,-0.59068 1.203692,-0.92475 1.929324,-1.00196 0.334805,-0.0356 0.609437,0.022 0.823672,0.17132 0.214369,0.15096 0.334627,0.36933 0.362582,0.65812 0.0597,0.61651 -0.211891,1.20773 -0.814742,1.77343 -0.60303,0.56411 -1.310888,0.89025 -2.125317,0.97691 -0.16507,0.0176 -0.320203,0.0242 -0.463748,0.0199 0.330764,0.37783 0.783415,0.53627 1.358044,0.47511 0.355011,-0.0378 0.640897,-0.12392 0.854306,-0.25974 l 0.05374,-0.0139 c 0.01911,0.003 0.02974,0.0149 0.03164,0.0344 0.0042,0.0438 -0.103355,0.10277 -0.324311,0.17708 -0.219348,0.0741 -0.422531,0.12037 -0.60783,0.14006 -0.635338,0.0677 -1.142871,-0.12101 -1.523806,-0.56235 -0.47614,-0.0592 -0.858236,-0.20374 -1.146399,-0.43374 -0.288117,-0.22999 -0.44957,-0.51601 -0.48266,-0.85834 -0.04443,-0.45924 0.09601,-0.9102 0.423157,-1.3499 0.325584,-0.43954 0.783617,-0.7948 1.372535,-1.06561 0.35519,-0.16572 0.766714,-0.30293 1.236156,-0.41028 -0.352355,-0.11329 -0.543302,-0.33063 -0.574561,-0.65353 -0.04012,-0.41539 0.172281,-0.78875 0.637347,-1.12021 -0.72255,-0.10177 -1.313366,-0.1274 -1.772738,-0.0785 -0.900123,0.0957 -1.643617,0.41095 -2.232044,0.94728 -0.5883378,0.53634 -0.8512699,1.1364 -0.7868988,1.80165 0.028804,0.2969 0.1375392,0.54273 0.3246908,0.73754 0.188737,0.19461 0.398283,0.27892 0.633417,0.25386 0.160381,-0.017 0.238685,-0.0533 0.233549,-0.10683 -0.0027,-0.0275 -0.03164,-0.0343 -0.08994,-0.0183 -0.160381,0.0171 -0.248866,-0.0522 -0.263803,-0.20633 -0.0085,-0.0876 0.02001,-0.16766 0.08552,-0.23862 0.06551,-0.0709 0.148168,-0.11081 0.249357,-0.12157 0.194631,-0.0207 0.300644,0.0664 0.319623,0.26271 0.01255,0.12974 -0.03284,0.24607 -0.134614,0.34867 -0.101905,0.10101 -0.232969,0.16082 -0.390246,0.17759 -0.283429,0.0301 -0.537676,-0.0772 -0.7610208,-0.32063 -0.2248858,-0.24321 -0.3555035,-0.55227 -0.3916518,-0.92544 -0.054304,-0.56139 0.1293671,-1.10221 0.5526576,-1.62102 0.501907,-0.61727 1.256587,-0.97957 2.262611,-1.08658 0.558976,-0.0595 1.316335,-0.0204 2.269063,0.11916 0.39835,-0.25708 0.877081,-0.4146 1.432976,-0.47379 0.414248,-0.0441 0.771783,-0.0231 1.075709,0.0609 0.30252,0.0859 0.462409,0.20982 0.478418,0.37531 z m -0.09438,2e-4 c -0.01197,-0.12329 -0.148614,-0.21854 -0.40842,-0.28602 -0.259986,-0.069 -0.552592,-0.0854 -0.879627,-0.0506 -0.446891,0.0475 -0.84513,0.19153 -1.193153,0.43185 0.832961,0.18677 1.525123,0.25083 2.074811,0.19228 0.286511,-0.0304 0.421906,-0.12684 0.406389,-0.28747 z m -0.991846,3.21186 c -0.02208,-0.22882 -0.127514,-0.40766 -0.314666,-0.53696 -0.187285,-0.13089 -0.414069,-0.18218 -0.677291,-0.15413 -0.653982,0.0695 -1.265072,0.4198 -1.833181,1.05235 -0.56822,0.63094 -0.823739,1.24172 -0.766759,1.83064 0.01653,0.17038 0.0831,0.33866 0.201643,0.50639 0.179248,0.0154 0.34291,0.016 0.492395,7e-5 0.716276,-0.0762 1.391915,-0.41039 2.025467,-1.00071 0.633484,-0.5903 0.924862,-1.15569 0.872392,-1.69765" /><g
     transform="matrix(0.22327806,0,0,-0.22327806,-19.88304,429.03141)"
     id="g63"><g
       transform="matrix(0.95965,-0.02575,0.02682,0.99964,0,0)"
       id="g65"><path
         inkscape:connector-curvature="0"
         id="path67"
         style="fill:none;stroke:#ffffff;stroke-width:0.96240002;stroke-linecap:butt;stroke-linejoin:miter;stroke-miterlimit:22.92558479;stroke-dasharray:none;stroke-opacity:1"
         d="m 156.2618,676.1038 c 0.1228,-0.949 -0.6848,-1.5386 -2.423,-1.7614 -1.3754,-0.1766 -4.7163,0.043 -10.0307,0.665 -2.2195,-1.6841 -3.1989,-3.5629 -2.9307,-5.6421 0.1301,-1.0069 0.5675,-1.6583 1.3115,-1.9454 0.9888,0.2078 1.7436,0.3489 2.2505,0.4138 1.4703,0.1883 2.2314,0.1094 2.2773,-0.2457 0.0287,-0.2243 -0.3475,-0.3906 -1.1222,-0.4899 -0.9921,-0.1275 -2.0897,-0.1207 -3.2848,0.0131 -1.5418,-0.4334 -3.2879,-1.2762 -5.239,-2.5282 -4.966,-3.2148 -7.1935,-6.8296 -6.6725,-10.865 0.345,-2.6736 2.0121,-4.183 5.0012,-4.5289 -0.6324,0.7952 -1.0213,1.7544 -1.1673,2.8846 -0.36,2.7895 0.7282,5.5366 3.272,8.2414 2.5356,2.7119 5.4978,4.2849 8.8722,4.7177 1.5571,0.1999 2.8448,-0.0252 3.8628,-0.6681 1.0187,-0.65 1.6069,-1.6132 1.7733,-2.9027 0.3555,-2.7533 -0.8371,-5.4326 -3.5776,-8.0379 -2.7419,-2.598 -6.0024,-4.1428 -9.7897,-4.6287 -0.7677,-0.0989 -1.4902,-0.1468 -2.16,-0.1446 1.5896,-1.652 3.7204,-2.3068 6.3927,-1.9644 1.6509,0.2121 2.9735,0.6322 3.9517,1.2657 l 0.2489,0.0686 c 0.0896,-0.0105 0.1406,-0.0629 0.152,-0.1497 0.0249,-0.1956 -0.4692,-0.4725 -1.4905,-0.8319 -1.0137,-0.3581 -1.9553,-0.5897 -2.8171,-0.7002 -2.9545,-0.379 -5.345,0.4048 -7.177,2.3349 -2.228,0.2075 -4.028,0.809 -5.4006,1.804 -1.3725,0.9952 -2.1611,2.2563 -2.3584,3.7851 -0.2648,2.0505 0.3339,4.0861 1.8045,6.0939 1.4633,2.0072 3.555,3.6527 6.2677,4.936 1.6359,0.7846 3.5379,1.4482 5.7135,1.9853 -1.6571,0.4649 -2.575,1.4151 -2.7612,2.8568 -0.2392,1.855 0.7047,3.5521 2.8324,5.0919 -3.3826,0.3688 -6.141,0.4127 -8.2775,0.1386 -4.1859,-0.5369 -7.6138,-2.0373 -10.2909,-4.5091 -2.6767,-2.4718 -3.8279,-5.1897 -3.4443,-8.1604 0.1715,-1.326 0.7092,-2.4134 1.6066,-3.2632 0.9046,-0.8487 1.8924,-1.2008 2.9858,-1.0604 0.7458,0.0955 1.1063,0.2673 1.0757,0.5065 -0.0161,0.1227 -0.1519,0.1497 -0.4218,0.0709 -0.7458,-0.0956 -1.167,0.2041 -1.256,0.892 -0.0505,0.3912 0.0723,0.7529 0.3691,1.0786 0.2965,0.3254 0.6769,0.5142 1.1477,0.5743 0.9048,0.1162 1.4102,-0.2611 1.5233,-1.1381 0.0749,-0.5791 -0.1224,-1.1052 -0.5842,-1.5769 -0.4626,-0.4643 -1.0664,-0.7481 -1.7977,-0.8419 -1.3181,-0.1689 -2.5172,0.2812 -3.5892,1.3439 -1.0792,1.0621 -1.7272,2.4301 -1.9423,4.0964 -0.3235,2.5069 0.4654,4.9501 2.3746,7.3238 2.2634,2.8236 5.7376,4.5363 10.4159,5.1364 2.5999,0.3336 6.1367,0.2495 10.597,-0.2611 1.8258,1.1991 4.0388,1.9619 6.624,2.2933 1.9261,0.2471 3.5963,0.1964 5.0244,-0.1438 1.4216,-0.3478 2.1827,-0.8835 2.2779,-1.6228 z m -0.4399,-0.0122 c -0.0712,0.5505 -0.7203,0.9607 -1.9406,1.232 -1.2212,0.2778 -2.5878,0.3157 -4.1085,0.1207 -2.0787,-0.2664 -3.9178,-0.9589 -5.5106,-2.0766 3.9081,-0.7362 7.1442,-0.9397 9.7004,-0.6115 1.3323,0.1704 1.9517,0.6183 1.8593,1.3354 z M 151.598,661.593 c -0.1318,1.0216 -0.6457,1.8099 -1.535,2.3663 -0.8895,0.5636 -1.9536,0.7657 -3.1776,0.6086 -3.0413,-0.39 -5.8473,-2.0316 -8.4178,-4.9317 -2.571,-2.8927 -3.6862,-5.6579 -3.3468,-8.2882 0.0983,-0.7605 0.43,-1.506 1.0037,-2.2425 0.8379,-0.0473 1.6013,-0.0306 2.2966,0.0587 3.3307,0.4269 6.4398,2.0044 9.3206,4.7234 2.8806,2.719 4.1687,5.2852 3.8563,7.7054 z" /></g><path
       inkscape:connector-curvature="0"
       id="path69"
       style="fill:#ffffff;fill-opacity:1;fill-rule:evenodd;stroke:none"
       d="m 134.0351,681.4375 c -1.0239,-5.9426 -1.9554,-7.3826 -6.5118,-9.4377 -0.7163,5.1242 2.4353,7.5977 6.5118,9.4377" /><path
       inkscape:connector-curvature="0"
       id="path71"
       style="fill:#ffffff;fill-opacity:1;fill-rule:evenodd;stroke:none"
       d="m 169.8469,681.2093 c 1.0236,-5.9423 1.9553,-7.3823 6.5117,-9.4374 0.716,5.1239 -2.4352,7.5977 -6.5117,9.4374" /><path
       inkscape:connector-curvature="0"
       id="path73"
       style="fill:#ffffff;fill-opacity:1;fill-rule:evenodd;stroke:none"
       d="m 141.0588,636.6141 c 1.8589,-5.6974 2.9849,-6.9625 7.7791,-8.2225 -0.0235,5.1829 -3.4897,7.094 -7.7791,8.2225" /><path
       inkscape:connector-curvature="0"
       id="path75"
       style="fill:#ffffff;fill-opacity:1;fill-rule:evenodd;stroke:none"
       d="m 162.8232,636.3862 c -1.859,-5.6974 -2.9849,-6.9625 -7.7791,-8.2228 0.0235,5.1829 3.4894,7.094 7.7791,8.2228" /><path
       inkscape:connector-curvature="0"
       id="path77"
       style="fill:#ffffff;fill-opacity:1;fill-rule:evenodd;stroke:none"
       d="m 139.4152,623.8511 c 5.4202,-1.3246 7.0036,-0.9621 10.5387,2.7811 -4.0419,2.7408 -7.3749,0.5675 -10.5387,-2.7811" /><path
       inkscape:connector-curvature="0"
       id="path79"
       style="fill:#ffffff;fill-opacity:1;fill-rule:evenodd;stroke:none"
       d="m 164.4667,623.6232 c -5.4201,-1.3249 -7.0036,-0.9624 -10.5386,2.7811 4.0416,2.7405 7.3749,0.5674 10.5386,-2.7811" /><path
       inkscape:connector-curvature="0"
       id="path81"
       style="fill:#ffffff;fill-opacity:1;fill-rule:evenodd;stroke:none"
       d="m 132.3505,627.0525 c 5.2908,-1.8425 6.8975,-1.6344 10.7237,1.753 -3.8027,3.1201 -7.2995,1.2773 -10.7237,-1.753" /><path
       inkscape:connector-curvature="0"
       id="path83"
       style="fill:#ffffff;fill-opacity:1;fill-rule:evenodd;stroke:none"
       d="m 171.5315,626.8246 c -5.2909,-1.8425 -6.8978,-1.6344 -10.7238,1.753 3.8024,3.1201 7.2995,1.277 10.7238,-1.753" /><path
       inkscape:connector-curvature="0"
       id="path85"
       style="fill:#ffffff;fill-opacity:1;fill-rule:evenodd;stroke:none"
       d="m 126.2194,632.5931 c 4.6619,-3.2879 6.2626,-3.5453 10.7708,-1.3682 -2.918,4.0957 -6.7368,3.3154 -10.7708,1.3682" /><path
       inkscape:connector-curvature="0"
       id="path87"
       style="fill:#ffffff;fill-opacity:1;fill-rule:evenodd;stroke:none"
       d="m 177.6626,632.3652 c -4.6619,-3.2879 -6.2626,-3.5455 -10.7709,-1.3685 2.918,4.096 6.7366,3.3154 10.7709,1.3685" /><path
       inkscape:connector-curvature="0"
       id="path89"
       style="fill:#ffffff;fill-opacity:1;fill-rule:evenodd;stroke:none"
       d="m 121.4444,638.9943 c 3.8821,-4.3248 5.3913,-4.9597 10.2294,-3.9169 -2.0171,4.6948 -5.9,4.849 -10.2294,3.9169" /><path
       inkscape:connector-curvature="0"
       id="path91"
       style="fill:#ffffff;fill-opacity:1;fill-rule:evenodd;stroke:none"
       d="m 182.4372,638.7661 c -3.8817,-4.3245 -5.3912,-4.9597 -10.2294,-3.9169 2.0175,4.6951 5.9004,4.849 10.2294,3.9169" /><path
       inkscape:connector-curvature="0"
       id="path93"
       style="fill:#ffffff;fill-opacity:1;fill-rule:evenodd;stroke:none"
       d="m 116.5116,653.1959 c 2.38,-5.4629 3.6178,-6.5973 8.5048,-7.3225 -0.506,5.1537 -4.1324,6.6728 -8.5048,7.3225" /><path
       inkscape:connector-curvature="0"
       id="path95"
       style="fill:#ffffff;fill-opacity:1;fill-rule:evenodd;stroke:none"
       d="m 187.3704,652.9677 c -2.38,-5.4629 -3.6179,-6.5973 -8.5048,-7.3222 0.506,5.1537 4.132,6.6725 8.5048,7.3222" /><path
       inkscape:connector-curvature="0"
       id="path97"
       style="fill:#ffffff;fill-opacity:1;fill-rule:evenodd;stroke:none"
       d="m 117.5329,645.9486 c 3.2227,-4.9247 4.6239,-5.8054 9.5519,-5.5874 -1.3277,4.9774 -5.1423,5.7815 -9.5519,5.5874" /><path
       inkscape:connector-curvature="0"
       id="path99"
       style="fill:#ffffff;fill-opacity:1;fill-rule:evenodd;stroke:none"
       d="m 186.3488,645.7207 c -3.2225,-4.9247 -4.6236,-5.8057 -9.5519,-5.5874 1.3277,4.9773 5.1423,5.7813 9.5519,5.5874" /><path
       inkscape:connector-curvature="0"
       id="path101"
       style="fill:#ffffff;fill-opacity:1;fill-rule:evenodd;stroke:none"
       d="m 128.7252,658.4919 c 0.8493,-5.9749 0.4105,-7.67 -3.2592,-11.2567 -2.2406,4.5737 -0.0236,8.0467 3.2592,11.2567" /><path
       inkscape:connector-curvature="0"
       id="path103"
       style="fill:#ffffff;fill-opacity:1;fill-rule:evenodd;stroke:none"
       d="m 175.1567,658.2637 c -0.8492,-5.9749 -0.4104,-7.6697 3.2593,-11.2564 2.2402,4.5737 0.0235,8.0464 -3.2593,11.2564" /><path
       inkscape:connector-curvature="0"
       id="path105"
       style="fill:#ffffff;fill-opacity:1;fill-rule:evenodd;stroke:none"
       d="m 129.9606,650.9999 c 1.5715,-5.7988 1.3436,-7.5424 -1.8553,-11.6283 -2.7791,4.2089 -1.0063,7.9719 1.8553,11.6283" /><path
       inkscape:connector-curvature="0"
       id="path107"
       style="fill:#ffffff;fill-opacity:1;fill-rule:evenodd;stroke:none"
       d="m 173.9214,650.7717 c -1.5718,-5.7988 -1.3439,-7.5424 1.8553,-11.628 2.779,4.2089 1.0063,7.9716 -1.8553,11.628" /><path
       inkscape:connector-curvature="0"
       id="path109"
       style="fill:#ffffff;fill-opacity:1;fill-rule:evenodd;stroke:none"
       d="m 132.9049,646.3687 c 2.4418,-5.4307 2.4854,-7.191 -0.0397,-11.8021 -3.3877,3.6428 -2.2189,7.6757 0.0397,11.8021" /><path
       inkscape:connector-curvature="0"
       id="path111"
       style="fill:#ffffff;fill-opacity:1;fill-rule:evenodd;stroke:none"
       d="m 170.977,646.1405 c -2.4417,-5.4304 -2.4854,-7.191 0.0397,-11.8021 3.3874,3.6428 2.2187,7.6757 -0.0397,11.8021" /><path
       inkscape:connector-curvature="0"
       id="path113"
       style="fill:#ffffff;fill-opacity:1;fill-rule:evenodd;stroke:none"
       d="m 136.4715,642.1436 c -0.8289,-5.9782 -0.3841,-7.6714 3.2978,-11.243 2.2246,4.5825 -0.004,8.0467 -3.2978,11.243" /><path
       inkscape:connector-curvature="0"
       id="path115"
       style="fill:#ffffff;fill-opacity:1;fill-rule:evenodd;stroke:none"
       d="m 167.4102,641.9157 c 0.8289,-5.9783 0.3841,-7.6717 -3.2978,-11.2433 -2.2247,4.5827 0.004,8.0467 3.2978,11.2433" /><path
       inkscape:connector-curvature="0"
       id="path117"
       style="fill:#ffffff;fill-opacity:1;fill-rule:evenodd;stroke:none"
       d="m 117.5349,661.9927 c 0.4122,-6.0293 1.1914,-7.5728 5.5105,-10.1648 1.2334,5.006 -1.6466,7.8446 -5.5105,10.1648" /><path
       inkscape:connector-curvature="0"
       id="path119"
       style="fill:#ffffff;fill-opacity:1;fill-rule:evenodd;stroke:none"
       d="m 186.3471,661.7645 c -0.4125,-6.029 -1.1917,-7.5725 -5.5106,-10.1645 -1.2336,5.006 1.6464,7.8443 5.5106,10.1645" /><path
       inkscape:connector-curvature="0"
       id="path121"
       style="fill:#ffffff;fill-opacity:1;fill-rule:evenodd;stroke:none"
       d="m 120.3248,671.1259 c -1.3434,-5.8666 -1.0474,-7.598 2.3088,-11.5316 2.6115,4.3339 0.693,8.0112 -2.3088,11.5316" /><path
       inkscape:connector-curvature="0"
       id="path123"
       style="fill:#ffffff;fill-opacity:1;fill-rule:evenodd;stroke:none"
       d="m 183.5572,670.898 c 1.3433,-5.8666 1.0471,-7.598 -2.3088,-11.5316 -2.6119,4.3339 -0.6934,8.011 2.3088,11.5316" /><path
       inkscape:connector-curvature="0"
       id="path125"
       style="fill:#ffffff;fill-opacity:1;fill-rule:evenodd;stroke:none"
       d="m 128.7952,665.8557 c -0.0566,-6.0457 -0.7432,-7.6402 -4.9008,-10.5281 -1.5259,4.9096 1.1812,7.9432 4.9008,10.5281" /><path
       inkscape:connector-curvature="0"
       id="path127"
       style="fill:#ffffff;fill-opacity:1;fill-rule:evenodd;stroke:none"
       d="m 175.0867,665.6275 c 0.0564,-6.0454 0.7433,-7.6402 4.9008,-10.5281 1.5256,4.9099 -1.1812,7.9432 -4.9008,10.5281" /><path
       inkscape:connector-curvature="0"
       id="path129"
       style="fill:#ffffff;fill-opacity:1;fill-rule:evenodd;stroke:none"
       d="m 132.8403,673.5691 c -1.5619,-5.802 -2.6206,-7.134 -7.3423,-8.6851 -0.2441,5.1761 3.1178,7.2961 7.3423,8.6851" /><path
       inkscape:connector-curvature="0"
       id="path131"
       style="fill:#ffffff;fill-opacity:1;fill-rule:evenodd;stroke:none"
       d="m 171.0414,673.3409 c 1.5622,-5.802 2.6209,-7.1337 7.3426,-8.6851 0.2437,5.1761 -3.1181,7.2961 -7.3426,8.6851" /><path
       inkscape:connector-curvature="0"
       id="path133"
       style="fill:#ffffff;fill-opacity:1;fill-rule:evenodd;stroke:none"
       d="m 124.8157,679.6108 c -2.3746,-5.4657 -2.3964,-7.2266 0.1854,-11.8003 3.342,3.6918 2.1237,7.7074 -0.1854,11.8003" /><path
       inkscape:connector-curvature="0"
       id="path135"
       style="fill:#ffffff;fill-opacity:1;fill-rule:evenodd;stroke:none"
       d="m 179.0663,679.3826 c 2.3746,-5.4654 2.3964,-7.2266 -0.1854,-11.8003 -3.3423,3.6921 -2.124,7.7074 0.1854,11.8003" /><path
       inkscape:connector-curvature="0"
       id="path137"
       style="fill:#ffffff;fill-opacity:1;fill-rule:evenodd;stroke:none"
       d="m 152.0606,629.7985 c -0.9479,0 -1.7167,-0.7935 -1.7167,-1.772 0,-0.9788 0.7688,-1.7722 1.7167,-1.7722 0.9482,0 1.7167,0.7934 1.7167,1.7722 0,0.9785 -0.7685,1.772 -1.7167,1.772" /></g></g></svg>