<?xml version="1.0" encoding="UTF-8" standalone="no"?>
<!-- Created with Inkscape (http://www.inkscape.org/) -->

<svg
   xmlns:dc="http://purl.org/dc/elements/1.1/"
   xmlns:cc="http://creativecommons.org/ns#"
   xmlns:rdf="http://www.w3.org/1999/02/22-rdf-syntax-ns#"
   xmlns:svg="http://www.w3.org/2000/svg"
   xmlns="http://www.w3.org/2000/svg"
   xmlns:sodipodi="http://sodipodi.sourceforge.net/DTD/sodipodi-0.dtd"
   xmlns:inkscape="http://www.inkscape.org/namespaces/inkscape"
   width="300"
   height="110"
   viewBox="0 0 79.374998 29.104167"
   version="1.1"
   id="svg1814"
   inkscape:version="0.92.4 (unknown)"
   sodipodi:docname="logo_tunqui.svg">
  <defs
     id="defs1808" />
  <sodipodi:namedview
     id="base"
     pagecolor="#ffffff"
     bordercolor="#666666"
     borderopacity="1.0"
     inkscape:pageopacity="0.0"
     inkscape:pageshadow="2"
     inkscape:zoom="2.4421655"
     inkscape:cx="186.12301"
     inkscape:cy="-4.6661783"
     inkscape:document-units="mm"
     inkscape:current-layer="layer1"
     showgrid="false"
     units="px"
     inkscape:window-width="1920"
     inkscape:window-height="1016"
     inkscape:window-x="1600"
     inkscape:window-y="27"
     inkscape:window-maximized="1"
     showguides="false" />
  <metadata
     id="metadata1811">
    <rdf:RDF>
      <cc:Work
         rdf:about="">
        <dc:format>image/svg+xml</dc:format>
        <dc:type
           rdf:resource="http://purl.org/dc/dcmitype/StillImage" />
        <dc:title />
      </cc:Work>
    </rdf:RDF>
  </metadata>
  <g
     inkscape:label="Capa 1"
     inkscape:groupmode="layer"
     id="layer1"
     transform="translate(0,-267.89582)">
    <rect
       style="opacity:0;fill:#480b96;fill-opacity:1;stroke:none;stroke-width:0.41221935;stroke-linecap:round;stroke-linejoin:round;stroke-miterlimit:4;stroke-dasharray:none;stroke-dashoffset:0;stroke-opacity:1"
       id="rect858"
       width="79.375"
       height="29.104166"
       x="0"
       y="267.89581" />
    <g
       id="g392">
      <path
         inkscape:connector-curvature="0"
         id="path49"
         style="fill:#000000;fill-opacity:1;fill-rule:evenodd;stroke:#ffffff;stroke-width:0.47475615;stroke-linecap:butt;stroke-linejoin:miter;stroke-miterlimit:22.92558479;stroke-dasharray:none;stroke-opacity:1"
         d="m 24.992725,288.88788 c 0.572217,-1.88976 -0.307209,-2.4636 0.272153,-3.80533 0.558865,-1.29336 1.759319,-0.91899 1.264938,-3.15065 -0.459752,-2.07691 -1.342839,-0.4255 -1.493865,-3.01564 -0.08621,-1.49038 0.909568,-2.28393 -0.583046,-3.05768 -0.954871,-0.49505 -1.513914,0.10836 -2.324994,-1.4029 -1.3392,-2.49629 -0.241275,-2.19737 -3.221479,-2.83255 -2.488612,-0.53026 -2.063111,0.42005 -4.359258,-1.41838 -0.406009,-0.25467 -0.825325,-0.24346 -1.257211,-0.005 -0.813559,1.72462 -3.3164836,1.09911 -5.4479411,1.32 l -1.7189279,3.15766 c -1.2158389,1.00324 -2.0898162,0.58863 -2.7979871,2.18324 -0.7378672,1.66231 0.2821563,1.668 -0.4986244,3.66084 -0.5175807,1.32248 -1.0053095,1.01413 -1.1536779,3.11933 l 1.7527331,5.59895 2.8534266,1.65797 c 0.768992,0.89374 0.7585648,2.15211 1.917668,2.63629 1.594697,0.66613 1.4617343,-0.63179 3.4586887,0.25556 1.041659,0.46304 1.126661,1.43173 2.776285,1.21792 1.937785,-0.25094 0.784442,-1.19367 3.001035,-1.42963 1.190005,-0.12678 2.166512,0.39051 3.086082,-0.33626 1.355388,-1.07133 0.448923,-1.77615 1.793861,-2.80185 1.360009,-1.03665 1.146667,0.19336 2.680141,-1.55147 z" />
      <path
         inkscape:connector-curvature="0"
         id="path51"
         style="fill:none;stroke:#ffffff;stroke-width:1.2658304;stroke-linecap:butt;stroke-linejoin:miter;stroke-miterlimit:22.92558479;stroke-dasharray:none;stroke-opacity:1"
         d="m 14.158514,273.11762 c 5.197288,0 9.41059,4.21319 9.41059,9.41054 0,5.19731 -4.213302,9.41061 -9.41059,9.41061 -5.1973106,0 -9.4106122,-4.2133 -9.4106122,-9.41061 0,-5.19735 4.2133016,-9.41054 9.4106122,-9.41054 z" />
      <path
         inkscape:connector-curvature="0"
         id="path53"
         style="fill:#000000;fill-opacity:1;fill-rule:evenodd;stroke:none;stroke-width:0.22327806"
         d="m 14.159898,273.11706 c 5.197288,0 9.410612,4.21323 9.410612,9.41061 0,5.19736 -4.213324,9.41068 -9.410612,9.41068 -5.1973775,0 -9.4106791,-4.21332 -9.4106791,-9.41068 0,-5.19738 4.2133016,-9.41061 9.4106791,-9.41061" />
      <g
         transform="matrix(0,0.2188125,0.22327806,0,-19.88304,429.03141)"
         id="g55">
        <path
           inkscape:connector-curvature="0"
           id="path57"
           style="fill:none;stroke:#ffffff;stroke-width:2.87229991;stroke-linecap:butt;stroke-linejoin:miter;stroke-miterlimit:22.92558479;stroke-dasharray:none;stroke-opacity:1"
           d="m -708.6557,152.4626 c 0,21.4469 17.4163,38.8329 38.9009,38.8329 21.4841,0 38.9007,-17.386 38.9007,-38.8329 0,-21.4464 -17.4166,-38.8327 -38.9007,-38.8327 -21.4846,0 -38.9009,17.3863 -38.9009,38.8327 z" />
      </g>
      <path
         inkscape:connector-curvature="0"
         id="path59"
         style="fill:#000000;fill-opacity:1;fill-rule:evenodd;stroke:none;stroke-width:0.22327806"
         d="m 14.159898,273.96844 c 4.788623,0 8.670535,3.81098 8.670535,8.51207 0,4.70097 -3.881912,8.51195 -8.670535,8.51195 -4.7885776,0 -8.6705568,-3.81098 -8.6705568,-8.51195 0,-4.70109 3.8819792,-8.51207 8.6705568,-8.51207" />
      <path
         inkscape:connector-curvature="0"
         id="path61"
         style="fill:#ffffff;fill-opacity:1;fill-rule:nonzero;stroke:none;stroke-width:0.22327806"
         d="m 17.646943,279.02207 c 0.02056,0.21254 -0.155959,0.3395 -0.529683,0.37931 -0.295843,0.0315 -1.0104,-0.0368 -2.145389,-0.20613 -0.485585,0.36316 -0.706719,0.77683 -0.661662,1.24247 0.02183,0.22551 0.111639,0.37337 0.269362,0.44178 0.21312,-0.0407 0.375711,-0.0679 0.484692,-0.0794 0.31614,-0.0336 0.478731,-0.0116 0.486389,0.0679 0.0049,0.0503 -0.0767,0.0852 -0.243283,0.10291 -0.213365,0.0227 -0.448477,0.0149 -0.703795,-0.0218 -0.332908,0.0879 -0.712101,0.26595 -1.137669,0.53417 -1.083367,0.68899 -1.582282,1.48306 -1.494824,2.38673 0.05792,0.59875 0.406076,0.94525 1.044495,1.03963 -0.130752,-0.18114 -0.208341,-0.39748 -0.232835,-0.65056 -0.06044,-0.62469 0.189184,-1.23154 0.750438,-1.82073 0.559557,-0.59068 1.203692,-0.92475 1.929324,-1.00196 0.334805,-0.0356 0.609437,0.022 0.823672,0.17132 0.214369,0.15096 0.334627,0.36933 0.362582,0.65812 0.0597,0.61651 -0.211891,1.20773 -0.814742,1.77343 -0.60303,0.56411 -1.310888,0.89025 -2.125317,0.97691 -0.16507,0.0176 -0.320203,0.0242 -0.463748,0.0199 0.330764,0.37783 0.783415,0.53627 1.358044,0.47511 0.355011,-0.0378 0.640897,-0.12392 0.854306,-0.25974 l 0.05374,-0.0139 c 0.01911,0.003 0.02974,0.0149 0.03164,0.0344 0.0042,0.0438 -0.103355,0.10277 -0.324311,0.17708 -0.219348,0.0741 -0.422531,0.12037 -0.60783,0.14006 -0.635338,0.0677 -1.142871,-0.12101 -1.523806,-0.56235 -0.47614,-0.0592 -0.858236,-0.20374 -1.146399,-0.43374 -0.288117,-0.22999 -0.44957,-0.51601 -0.48266,-0.85834 -0.04443,-0.45924 0.09601,-0.9102 0.423157,-1.3499 0.325584,-0.43954 0.783617,-0.7948 1.372535,-1.06561 0.35519,-0.16572 0.766714,-0.30293 1.236156,-0.41028 -0.352355,-0.11329 -0.543302,-0.33063 -0.574561,-0.65353 -0.04012,-0.41539 0.172281,-0.78875 0.637347,-1.12021 -0.72255,-0.10177 -1.313366,-0.1274 -1.772738,-0.0785 -0.900123,0.0957 -1.643617,0.41095 -2.232044,0.94728 -0.5883378,0.53634 -0.8512699,1.1364 -0.7868988,1.80165 0.028804,0.2969 0.1375392,0.54273 0.3246908,0.73754 0.188737,0.19461 0.398283,0.27892 0.633417,0.25386 0.160381,-0.017 0.238685,-0.0533 0.233549,-0.10683 -0.0027,-0.0275 -0.03164,-0.0343 -0.08994,-0.0183 -0.160381,0.0171 -0.248866,-0.0522 -0.263803,-0.20633 -0.0085,-0.0876 0.02001,-0.16766 0.08552,-0.23862 0.06551,-0.0709 0.148168,-0.11081 0.249357,-0.12157 0.194631,-0.0207 0.300644,0.0664 0.319623,0.26271 0.01255,0.12974 -0.03284,0.24607 -0.134614,0.34867 -0.101905,0.10101 -0.232969,0.16082 -0.390246,0.17759 -0.283429,0.0301 -0.537676,-0.0772 -0.7610208,-0.32063 -0.2248858,-0.24321 -0.3555035,-0.55227 -0.3916518,-0.92544 -0.054304,-0.56139 0.1293671,-1.10221 0.5526576,-1.62102 0.501907,-0.61727 1.256587,-0.97957 2.262611,-1.08658 0.558976,-0.0595 1.316335,-0.0204 2.269063,0.11916 0.39835,-0.25708 0.877081,-0.4146 1.432976,-0.47379 0.414248,-0.0441 0.771783,-0.0231 1.075709,0.0609 0.30252,0.0859 0.462409,0.20982 0.478418,0.37531 z m -0.09438,2e-4 c -0.01197,-0.12329 -0.148614,-0.21854 -0.40842,-0.28602 -0.259986,-0.069 -0.552592,-0.0854 -0.879627,-0.0506 -0.446891,0.0475 -0.84513,0.19153 -1.193153,0.43185 0.832961,0.18677 1.525123,0.25083 2.074811,0.19228 0.286511,-0.0304 0.421906,-0.12684 0.406389,-0.28747 z m -0.991846,3.21186 c -0.02208,-0.22882 -0.127514,-0.40766 -0.314666,-0.53696 -0.187285,-0.13089 -0.414069,-0.18218 -0.677291,-0.15413 -0.653982,0.0695 -1.265072,0.4198 -1.833181,1.05235 -0.56822,0.63094 -0.823739,1.24172 -0.766759,1.83064 0.01653,0.17038 0.0831,0.33866 0.201643,0.50639 0.179248,0.0154 0.34291,0.016 0.492395,7e-5 0.716276,-0.0762 1.391915,-0.41039 2.025467,-1.00071 0.633484,-0.5903 0.924862,-1.15569 0.872392,-1.69765" />
      <g
         transform="matrix(0.22327806,0,0,-0.22327806,-19.88304,429.03141)"
         id="g63">
        <g
           transform="matrix(0.95965,-0.02575,0.02682,0.99964,0,0)"
           id="g65">
          <path
             inkscape:connector-curvature="0"
             id="path67"
             style="fill:none;stroke:#ffffff;stroke-width:0.96240002;stroke-linecap:butt;stroke-linejoin:miter;stroke-miterlimit:22.92558479;stroke-dasharray:none;stroke-opacity:1"
             d="m 156.2618,676.1038 c 0.1228,-0.949 -0.6848,-1.5386 -2.423,-1.7614 -1.3754,-0.1766 -4.7163,0.043 -10.0307,0.665 -2.2195,-1.6841 -3.1989,-3.5629 -2.9307,-5.6421 0.1301,-1.0069 0.5675,-1.6583 1.3115,-1.9454 0.9888,0.2078 1.7436,0.3489 2.2505,0.4138 1.4703,0.1883 2.2314,0.1094 2.2773,-0.2457 0.0287,-0.2243 -0.3475,-0.3906 -1.1222,-0.4899 -0.9921,-0.1275 -2.0897,-0.1207 -3.2848,0.0131 -1.5418,-0.4334 -3.2879,-1.2762 -5.239,-2.5282 -4.966,-3.2148 -7.1935,-6.8296 -6.6725,-10.865 0.345,-2.6736 2.0121,-4.183 5.0012,-4.5289 -0.6324,0.7952 -1.0213,1.7544 -1.1673,2.8846 -0.36,2.7895 0.7282,5.5366 3.272,8.2414 2.5356,2.7119 5.4978,4.2849 8.8722,4.7177 1.5571,0.1999 2.8448,-0.0252 3.8628,-0.6681 1.0187,-0.65 1.6069,-1.6132 1.7733,-2.9027 0.3555,-2.7533 -0.8371,-5.4326 -3.5776,-8.0379 -2.7419,-2.598 -6.0024,-4.1428 -9.7897,-4.6287 -0.7677,-0.0989 -1.4902,-0.1468 -2.16,-0.1446 1.5896,-1.652 3.7204,-2.3068 6.3927,-1.9644 1.6509,0.2121 2.9735,0.6322 3.9517,1.2657 l 0.2489,0.0686 c 0.0896,-0.0105 0.1406,-0.0629 0.152,-0.1497 0.0249,-0.1956 -0.4692,-0.4725 -1.4905,-0.8319 -1.0137,-0.3581 -1.9553,-0.5897 -2.8171,-0.7002 -2.9545,-0.379 -5.345,0.4048 -7.177,2.3349 -2.228,0.2075 -4.028,0.809 -5.4006,1.804 -1.3725,0.9952 -2.1611,2.2563 -2.3584,3.7851 -0.2648,2.0505 0.3339,4.0861 1.8045,6.0939 1.4633,2.0072 3.555,3.6527 6.2677,4.936 1.6359,0.7846 3.5379,1.4482 5.7135,1.9853 -1.6571,0.4649 -2.575,1.4151 -2.7612,2.8568 -0.2392,1.855 0.7047,3.5521 2.8324,5.0919 -3.3826,0.3688 -6.141,0.4127 -8.2775,0.1386 -4.1859,-0.5369 -7.6138,-2.0373 -10.2909,-4.5091 -2.6767,-2.4718 -3.8279,-5.1897 -3.4443,-8.1604 0.1715,-1.326 0.7092,-2.4134 1.6066,-3.2632 0.9046,-0.8487 1.8924,-1.2008 2.9858,-1.0604 0.7458,0.0955 1.1063,0.2673 1.0757,0.5065 -0.0161,0.1227 -0.1519,0.1497 -0.4218,0.0709 -0.7458,-0.0956 -1.167,0.2041 -1.256,0.892 -0.0505,0.3912 0.0723,0.7529 0.3691,1.0786 0.2965,0.3254 0.6769,0.5142 1.1477,0.5743 0.9048,0.1162 1.4102,-0.2611 1.5233,-1.1381 0.0749,-0.5791 -0.1224,-1.1052 -0.5842,-1.5769 -0.4626,-0.4643 -1.0664,-0.7481 -1.7977,-0.8419 -1.3181,-0.1689 -2.5172,0.2812 -3.5892,1.3439 -1.0792,1.0621 -1.7272,2.4301 -1.9423,4.0964 -0.3235,2.5069 0.4654,4.9501 2.3746,7.3238 2.2634,2.8236 5.7376,4.5363 10.4159,5.1364 2.5999,0.3336 6.1367,0.2495 10.597,-0.2611 1.8258,1.1991 4.0388,1.9619 6.624,2.2933 1.9261,0.2471 3.5963,0.1964 5.0244,-0.1438 1.4216,-0.3478 2.1827,-0.8835 2.2779,-1.6228 z m -0.4399,-0.0122 c -0.0712,0.5505 -0.7203,0.9607 -1.9406,1.232 -1.2212,0.2778 -2.5878,0.3157 -4.1085,0.1207 -2.0787,-0.2664 -3.9178,-0.9589 -5.5106,-2.0766 3.9081,-0.7362 7.1442,-0.9397 9.7004,-0.6115 1.3323,0.1704 1.9517,0.6183 1.8593,1.3354 z M 151.598,661.593 c -0.1318,1.0216 -0.6457,1.8099 -1.535,2.3663 -0.8895,0.5636 -1.9536,0.7657 -3.1776,0.6086 -3.0413,-0.39 -5.8473,-2.0316 -8.4178,-4.9317 -2.571,-2.8927 -3.6862,-5.6579 -3.3468,-8.2882 0.0983,-0.7605 0.43,-1.506 1.0037,-2.2425 0.8379,-0.0473 1.6013,-0.0306 2.2966,0.0587 3.3307,0.4269 6.4398,2.0044 9.3206,4.7234 2.8806,2.719 4.1687,5.2852 3.8563,7.7054 z" />
        </g>
        <path
           inkscape:connector-curvature="0"
           id="path69"
           style="fill:#ffffff;fill-opacity:1;fill-rule:evenodd;stroke:none"
           d="m 134.0351,681.4375 c -1.0239,-5.9426 -1.9554,-7.3826 -6.5118,-9.4377 -0.7163,5.1242 2.4353,7.5977 6.5118,9.4377" />
        <path
           inkscape:connector-curvature="0"
           id="path71"
           style="fill:#ffffff;fill-opacity:1;fill-rule:evenodd;stroke:none"
           d="m 169.8469,681.2093 c 1.0236,-5.9423 1.9553,-7.3823 6.5117,-9.4374 0.716,5.1239 -2.4352,7.5977 -6.5117,9.4374" />
        <path
           inkscape:connector-curvature="0"
           id="path73"
           style="fill:#ffffff;fill-opacity:1;fill-rule:evenodd;stroke:none"
           d="m 141.0588,636.6141 c 1.8589,-5.6974 2.9849,-6.9625 7.7791,-8.2225 -0.0235,5.1829 -3.4897,7.094 -7.7791,8.2225" />
        <path
           inkscape:connector-curvature="0"
           id="path75"
           style="fill:#ffffff;fill-opacity:1;fill-rule:evenodd;stroke:none"
           d="m 162.8232,636.3862 c -1.859,-5.6974 -2.9849,-6.9625 -7.7791,-8.2228 0.0235,5.1829 3.4894,7.094 7.7791,8.2228" />
        <path
           inkscape:connector-curvature="0"
           id="path77"
           style="fill:#ffffff;fill-opacity:1;fill-rule:evenodd;stroke:none"
           d="m 139.4152,623.8511 c 5.4202,-1.3246 7.0036,-0.9621 10.5387,2.7811 -4.0419,2.7408 -7.3749,0.5675 -10.5387,-2.7811" />
        <path
           inkscape:connector-curvature="0"
           id="path79"
           style="fill:#ffffff;fill-opacity:1;fill-rule:evenodd;stroke:none"
           d="m 164.4667,623.6232 c -5.4201,-1.3249 -7.0036,-0.9624 -10.5386,2.7811 4.0416,2.7405 7.3749,0.5674 10.5386,-2.7811" />
        <path
           inkscape:connector-curvature="0"
           id="path81"
           style="fill:#ffffff;fill-opacity:1;fill-rule:evenodd;stroke:none"
           d="m 132.3505,627.0525 c 5.2908,-1.8425 6.8975,-1.6344 10.7237,1.753 -3.8027,3.1201 -7.2995,1.2773 -10.7237,-1.753" />
        <path
           inkscape:connector-curvature="0"
           id="path83"
           style="fill:#ffffff;fill-opacity:1;fill-rule:evenodd;stroke:none"
           d="m 171.5315,626.8246 c -5.2909,-1.8425 -6.8978,-1.6344 -10.7238,1.753 3.8024,3.1201 7.2995,1.277 10.7238,-1.753" />
        <path
           inkscape:connector-curvature="0"
           id="path85"
           style="fill:#ffffff;fill-opacity:1;fill-rule:evenodd;stroke:none"
           d="m 126.2194,632.5931 c 4.6619,-3.2879 6.2626,-3.5453 10.7708,-1.3682 -2.918,4.0957 -6.7368,3.3154 -10.7708,1.3682" />
        <path
           inkscape:connector-curvature="0"
           id="path87"
           style="fill:#ffffff;fill-opacity:1;fill-rule:evenodd;stroke:none"
           d="m 177.6626,632.3652 c -4.6619,-3.2879 -6.2626,-3.5455 -10.7709,-1.3685 2.918,4.096 6.7366,3.3154 10.7709,1.3685" />
        <path
           inkscape:connector-curvature="0"
           id="path89"
           style="fill:#ffffff;fill-opacity:1;fill-rule:evenodd;stroke:none"
           d="m 121.4444,638.9943 c 3.8821,-4.3248 5.3913,-4.9597 10.2294,-3.9169 -2.0171,4.6948 -5.9,4.849 -10.2294,3.9169" />
        <path
           inkscape:connector-curvature="0"
           id="path91"
           style="fill:#ffffff;fill-opacity:1;fill-rule:evenodd;stroke:none"
           d="m 182.4372,638.7661 c -3.8817,-4.3245 -5.3912,-4.9597 -10.2294,-3.9169 2.0175,4.6951 5.9004,4.849 10.2294,3.9169" />
        <path
           inkscape:connector-curvature="0"
           id="path93"
           style="fill:#ffffff;fill-opacity:1;fill-rule:evenodd;stroke:none"
           d="m 116.5116,653.1959 c 2.38,-5.4629 3.6178,-6.5973 8.5048,-7.3225 -0.506,5.1537 -4.1324,6.6728 -8.5048,7.3225" />
        <path
           inkscape:connector-curvature="0"
           id="path95"
           style="fill:#ffffff;fill-opacity:1;fill-rule:evenodd;stroke:none"
           d="m 187.3704,652.9677 c -2.38,-5.4629 -3.6179,-6.5973 -8.5048,-7.3222 0.506,5.1537 4.132,6.6725 8.5048,7.3222" />
        <path
           inkscape:connector-curvature="0"
           id="path97"
           style="fill:#ffffff;fill-opacity:1;fill-rule:evenodd;stroke:none"
           d="m 117.5329,645.9486 c 3.2227,-4.9247 4.6239,-5.8054 9.5519,-5.5874 -1.3277,4.9774 -5.1423,5.7815 -9.5519,5.5874" />
        <path
           inkscape:connector-curvature="0"
           id="path99"
           style="fill:#ffffff;fill-opacity:1;fill-rule:evenodd;stroke:none"
           d="m 186.3488,645.7207 c -3.2225,-4.9247 -4.6236,-5.8057 -9.5519,-5.5874 1.3277,4.9773 5.1423,5.7813 9.5519,5.5874" />
        <path
           inkscape:connector-curvature="0"
           id="path101"
           style="fill:#ffffff;fill-opacity:1;fill-rule:evenodd;stroke:none"
           d="m 128.7252,658.4919 c 0.8493,-5.9749 0.4105,-7.67 -3.2592,-11.2567 -2.2406,4.5737 -0.0236,8.0467 3.2592,11.2567" />
        <path
           inkscape:connector-curvature="0"
           id="path103"
           style="fill:#ffffff;fill-opacity:1;fill-rule:evenodd;stroke:none"
           d="m 175.1567,658.2637 c -0.8492,-5.9749 -0.4104,-7.6697 3.2593,-11.2564 2.2402,4.5737 0.0235,8.0464 -3.2593,11.2564" />
        <path
           inkscape:connector-curvature="0"
           id="path105"
           style="fill:#ffffff;fill-opacity:1;fill-rule:evenodd;stroke:none"
           d="m 129.9606,650.9999 c 1.5715,-5.7988 1.3436,-7.5424 -1.8553,-11.6283 -2.7791,4.2089 -1.0063,7.9719 1.8553,11.6283" />
        <path
           inkscape:connector-curvature="0"
           id="path107"
           style="fill:#ffffff;fill-opacity:1;fill-rule:evenodd;stroke:none"
           d="m 173.9214,650.7717 c -1.5718,-5.7988 -1.3439,-7.5424 1.8553,-11.628 2.779,4.2089 1.0063,7.9716 -1.8553,11.628" />
        <path
           inkscape:connector-curvature="0"
           id="path109"
           style="fill:#ffffff;fill-opacity:1;fill-rule:evenodd;stroke:none"
           d="m 132.9049,646.3687 c 2.4418,-5.4307 2.4854,-7.191 -0.0397,-11.8021 -3.3877,3.6428 -2.2189,7.6757 0.0397,11.8021" />
        <path
           inkscape:connector-curvature="0"
           id="path111"
           style="fill:#ffffff;fill-opacity:1;fill-rule:evenodd;stroke:none"
           d="m 170.977,646.1405 c -2.4417,-5.4304 -2.4854,-7.191 0.0397,-11.8021 3.3874,3.6428 2.2187,7.6757 -0.0397,11.8021" />
        <path
           inkscape:connector-curvature="0"
           id="path113"
           style="fill:#ffffff;fill-opacity:1;fill-rule:evenodd;stroke:none"
           d="m 136.4715,642.1436 c -0.8289,-5.9782 -0.3841,-7.6714 3.2978,-11.243 2.2246,4.5825 -0.004,8.0467 -3.2978,11.243" />
        <path
           inkscape:connector-curvature="0"
           id="path115"
           style="fill:#ffffff;fill-opacity:1;fill-rule:evenodd;stroke:none"
           d="m 167.4102,641.9157 c 0.8289,-5.9783 0.3841,-7.6717 -3.2978,-11.2433 -2.2247,4.5827 0.004,8.0467 3.2978,11.2433" />
        <path
           inkscape:connector-curvature="0"
           id="path117"
           style="fill:#ffffff;fill-opacity:1;fill-rule:evenodd;stroke:none"
           d="m 117.5349,661.9927 c 0.4122,-6.0293 1.1914,-7.5728 5.5105,-10.1648 1.2334,5.006 -1.6466,7.8446 -5.5105,10.1648" />
        <path
           inkscape:connector-curvature="0"
           id="path119"
           style="fill:#ffffff;fill-opacity:1;fill-rule:evenodd;stroke:none"
           d="m 186.3471,661.7645 c -0.4125,-6.029 -1.1917,-7.5725 -5.5106,-10.1645 -1.2336,5.006 1.6464,7.8443 5.5106,10.1645" />
        <path
           inkscape:connector-curvature="0"
           id="path121"
           style="fill:#ffffff;fill-opacity:1;fill-rule:evenodd;stroke:none"
           d="m 120.3248,671.1259 c -1.3434,-5.8666 -1.0474,-7.598 2.3088,-11.5316 2.6115,4.3339 0.693,8.0112 -2.3088,11.5316" />
        <path
           inkscape:connector-curvature="0"
           id="path123"
           style="fill:#ffffff;fill-opacity:1;fill-rule:evenodd;stroke:none"
           d="m 183.5572,670.898 c 1.3433,-5.8666 1.0471,-7.598 -2.3088,-11.5316 -2.6119,4.3339 -0.6934,8.011 2.3088,11.5316" />
        <path
           inkscape:connector-curvature="0"
           id="path125"
           style="fill:#ffffff;fill-opacity:1;fill-rule:evenodd;stroke:none"
           d="m 128.7952,665.8557 c -0.0566,-6.0457 -0.7432,-7.6402 -4.9008,-10.5281 -1.5259,4.9096 1.1812,7.9432 4.9008,10.5281" />
        <path
           inkscape:connector-curvature="0"
           id="path127"
           style="fill:#ffffff;fill-opacity:1;fill-rule:evenodd;stroke:none"
           d="m 175.0867,665.6275 c 0.0564,-6.0454 0.7433,-7.6402 4.9008,-10.5281 1.5256,4.9099 -1.1812,7.9432 -4.9008,10.5281" />
        <path
           inkscape:connector-curvature="0"
           id="path129"
           style="fill:#ffffff;fill-opacity:1;fill-rule:evenodd;stroke:none"
           d="m 132.8403,673.5691 c -1.5619,-5.802 -2.6206,-7.134 -7.3423,-8.6851 -0.2441,5.1761 3.1178,7.2961 7.3423,8.6851" />
        <path
           inkscape:connector-curvature="0"
           id="path131"
           style="fill:#ffffff;fill-opacity:1;fill-rule:evenodd;stroke:none"
           d="m 171.0414,673.3409 c 1.5622,-5.802 2.6209,-7.1337 7.3426,-8.6851 0.2437,5.1761 -3.1181,7.2961 -7.3426,8.6851" />
        <path
           inkscape:connector-curvature="0"
           id="path133"
           style="fill:#ffffff;fill-opacity:1;fill-rule:evenodd;stroke:none"
           d="m 124.8157,679.6108 c -2.3746,-5.4657 -2.3964,-7.2266 0.1854,-11.8003 3.342,3.6918 2.1237,7.7074 -0.1854,11.8003" />
        <path
           inkscape:connector-curvature="0"
           id="path135"
           style="fill:#ffffff;fill-opacity:1;fill-rule:evenodd;stroke:none"
           d="m 179.0663,679.3826 c 2.3746,-5.4654 2.3964,-7.2266 -0.1854,-11.8003 -3.3423,3.6921 -2.124,7.7074 0.1854,11.8003" />
        <path
           inkscape:connector-curvature="0"
           id="path137"
           style="fill:#ffffff;fill-opacity:1;fill-rule:evenodd;stroke:none"
           d="m 152.0606,629.7985 c -0.9479,0 -1.7167,-0.7935 -1.7167,-1.772 0,-0.9788 0.7688,-1.7722 1.7167,-1.7722 0.9482,0 1.7167,0.7934 1.7167,1.7722 0,0.9785 -0.7685,1.772 -1.7167,1.772" />
      </g>
    </g>
    <g
       id="g139"
       transform="matrix(0.22327806,0,0,-0.22327806,-19.88304,429.03141)"
       style="fill:#000000">
      <path
         d="m 248.6928,696.7791 -1.9389,-1.8342 c -1.3992,1.3699 -2.9319,2.4091 -4.5978,3.1172 -1.6662,0.7084 -3.2916,1.0624 -4.8764,1.0624 -1.9681,0 -3.8432,-0.4819 -5.6197,-1.4456 -1.7821,-0.9635 -3.1637,-2.2697 -4.1391,-3.9243 -0.9811,-1.6486 -1.4687,-3.3903 -1.4687,-5.2305 0,-1.8808 0.5052,-3.6689 1.5151,-5.37 1.0103,-1.6951 2.4092,-3.0245 4.1916,-3.994 1.7878,-0.9694 3.7384,-1.457 5.8632,-1.457 2.5776,0 4.7602,0.7257 6.5427,2.1711 1.7821,1.4456 2.8386,3.3264 3.1694,5.6313 h -7.9764 v 2.4381 h 10.798 c -0.0233,-3.8605 -1.1727,-6.9316 -3.4484,-9.2013 -2.2816,-2.27 -5.3234,-3.4078 -9.1434,-3.4078 -4.6327,0 -8.3015,1.5732 -11.0066,4.7256 -2.0784,2.4265 -3.1176,5.2305 -3.1176,8.4175 0,2.3627 0.5981,4.5689 1.7881,6.6124 1.1959,2.0375 2.833,3.634 4.9113,4.7834 2.084,1.1495 4.4351,1.7241 7.0591,1.7241 2.1249,0 4.1276,-0.383 6.0027,-1.1435 1.8751,-0.7665 3.7094,-1.9854 5.4918,-3.6749 z m 4.9113,-2.3221 h 2.4381 v -2.7051 c 0.7257,1.0681 1.4922,1.8575 2.2989,2.38 0.807,0.5167 1.6489,0.7781 2.5194,0.7781 0.6619,0 1.3644,-0.2092 2.1133,-0.627 l -1.2425,-1.997 c -0.4991,0.2148 -0.917,0.3251 -1.2597,0.3251 -0.7951,0 -1.5616,-0.3251 -2.2989,-0.9754 -0.7373,-0.6503 -1.3002,-1.6662 -1.6891,-3.0362 -0.2963,-1.0508 -0.4414,-3.1813 -0.4414,-6.3856 v -6.2524 h -2.4381 z m 11.0707,0 h 2.3687 v -8.6323 c 0,-2.1073 0.1159,-3.553 0.3424,-4.3481 0.3367,-1.1322 0.9927,-2.0262 1.9505,-2.6821 0.9578,-0.656 2.1073,-0.9868 3.4367,-0.9868 1.3295,0 2.4557,0.3192 3.3846,0.9578 0.923,0.6444 1.5673,1.4803 1.9157,2.5251 0.2381,0.7141 0.36,2.2235 0.36,4.5341 v 8.6323 h 2.438 v -9.0677 c 0,-2.5487 -0.2959,-4.4643 -0.894,-5.753 -0.5922,-1.2945 -1.4919,-2.3048 -2.6878,-3.0305 -1.196,-0.7313 -2.6935,-1.097 -4.4992,-1.097 -1.8054,0 -3.3089,0.3657 -4.5164,1.097 -1.2076,0.7257 -2.113,1.7476 -2.7051,3.0538 -0.5981,1.3059 -0.8941,3.274 -0.8941,5.898 z m 21.5201,0 h 2.3683 v -3.4019 c 0.9406,1.2946 2.0203,2.2584 3.2451,2.8968 1.2252,0.6386 2.5892,0.9581 4.0987,0.9581 2.6297,0 4.8764,-0.9465 6.7456,-2.833 1.8694,-1.8867 2.804,-4.1624 2.804,-6.8156 0,-2.7167 -0.9289,-5.0156 -2.7808,-6.914 -1.8519,-1.8924 -4.0867,-2.8386 -6.7051,-2.8386 -1.4686,0 -2.8213,0.3076 -4.0578,0.917 -1.2364,0.6154 -2.351,1.5271 -3.3497,2.7403 v -9.9618 h -2.3683 z m 9.538,-1.8459 c -2.0611,0 -3.791,-0.7141 -5.1959,-2.1481 -1.4105,-1.4338 -2.1129,-3.2162 -2.1129,-5.3467 0,-1.3989 0.3135,-2.6586 0.9405,-3.7732 0.6267,-1.1205 1.5267,-2.003 2.6935,-2.6589 1.1727,-0.6559 2.4091,-0.9811 3.7037,-0.9811 1.2773,0 2.4789,0.3308 3.6051,0.9927 1.1262,0.6559 2.0203,1.5789 2.6878,2.7632 0.6676,1.1843 0.9987,2.4268 0.9987,3.7213 0,1.3119 -0.3311,2.5543 -0.9927,3.727 -0.6619,1.1727 -1.5503,2.0841 -2.6705,2.7284 -1.1146,0.6503 -2.3395,0.9754 -3.6573,0.9754 z m 22.9598,2.2989 c 2.8502,0 5.2189,-1.0276 7.094,-3.0886 1.7067,-1.8749 2.5599,-4.0984 2.5599,-6.6643 0,-2.5775 -0.8997,-4.83 -2.7051,-6.7575 -1.7997,-1.9273 -4.1218,-2.8908 -6.9488,-2.8908 -2.8449,0 -5.1727,0.9635 -6.9724,2.8908 -1.8054,1.9275 -2.7051,4.18 -2.7051,6.7575 0,2.5543 0.8532,4.7718 2.56,6.647 1.8751,2.0724 4.2497,3.1059 7.1175,3.1059 z m -0.0116,-2.3338 c -1.9797,0 -3.6749,-0.7256 -5.0973,-2.1829 -1.4221,-1.457 -2.1305,-3.2219 -2.1305,-5.2886 0,-1.3292 0.3251,-2.5716 0.9694,-3.7267 0.6503,-1.1495 1.5271,-2.0379 2.63,-2.6649 1.097,-0.6267 2.3105,-0.9402 3.6284,-0.9402 1.3175,0 2.531,0.3135 3.628,0.9402 1.103,0.627 1.9798,1.5154 2.63,2.6649 0.6443,1.1551 0.9695,2.3975 0.9695,3.7267 0,2.0667 -0.7141,3.8316 -2.1422,5.2886 -1.4224,1.4573 -3.1175,2.1829 -5.0853,2.1829 z m -94.1267,-33.1018 h 14.3158 v -2.4381 h -11.808 v -7.8372 h 11.7034 v -2.4381 h -11.7034 v -9.8575 h 11.7034 v -2.4381 h -14.2112 z m 17.3344,0 h 2.9259 l 5.9794,-9.7121 6.0027,9.7121 h 2.9259 l -7.4713,-12.0807 7.9589,-12.9283 h -2.9257 l -6.4961,10.554 -6.5311,-10.554 h -2.9259 l 7.994,12.9283 z m 45.8153,-4.6151 -1.9738,-1.5151 c -1.0857,1.4164 -2.3919,2.4905 -3.9186,3.2218 -1.5211,0.7316 -3.193,1.0973 -5.0216,1.0973 -1.9913,0 -3.8372,-0.4819 -5.5383,-1.4397 -1.7008,-0.9578 -3.013,-2.2467 -3.9475,-3.8605 -0.9346,-1.6141 -1.4049,-3.4367 -1.4049,-5.4513 0,-3.0535 1.0449,-5.6018 3.1348,-7.6397 2.09,-2.0435 4.7257,-3.0651 7.9127,-3.0651 3.5005,0 6.4264,1.37 8.7834,4.1103 l 1.9738,-1.4979 c -1.2481,-1.5848 -2.8041,-2.8156 -4.6676,-3.6805 -1.8635,-0.8651 -3.9475,-1.3005 -6.2464,-1.3005 -4.3772,0 -7.8313,1.4573 -10.3567,4.3713 -2.1188,2.4557 -3.1813,5.4281 -3.1813,8.9053 0,3.6573 1.283,6.74 3.8489,9.2361 2.5719,2.5022 5.7881,3.7503 9.6542,3.7503 2.3338,0 4.4411,-0.4587 6.3219,-1.3757 1.881,-0.9232 3.4251,-2.2118 4.627,-3.8664 z m 5.0505,4.6151 h 14.3158 v -2.4381 h -11.808 v -7.8372 h 11.7034 v -2.4381 h -11.7034 v -9.8575 h 11.7034 v -2.4381 h -14.2112 z m 18.6406,0 h 2.5081 v -22.5709 h 9.6483 v -2.4381 h -12.1564 z m 16.0863,0 h 2.5081 v -22.5709 h 9.6483 v -2.4381 h -12.1564 z m 16.1212,0 h 14.3158 v -2.4381 h -11.808 v -7.8372 h 11.7034 v -2.4381 h -11.7034 v -9.8575 h 11.7034 v -2.4381 h -14.2112 z m 18.6755,-25.009 v 25.009 h 0.54 l 16.632,-19.1282 v 19.1282 h 2.5078 v -25.009 h -0.5689 l -16.5334,18.9601 v -18.9601 z m 23.256,22.5709 v 2.4381 h 13.6888 v -2.4381 h -5.5729 v -22.5709 h -2.5427 v 22.5709 z m 16.9574,2.4381 h 2.5078 v -25.009 h -2.5078 z m 18.4607,0 11.6685,-25.009 h -2.6878 l -3.907,8.2202 h -10.8386 l -3.8837,-8.2202 h -2.7865 l 11.808,25.009 z m -0.3136,-5.2478 -4.3018,-9.1026 h 8.5861 z"
         style="fill:#000000;fill-opacity:1;fill-rule:nonzero;stroke:none"
         id="path141"
         inkscape:connector-curvature="0" />
      <path
         d="m 234.4771,622.9599 -0.891,-0.684 c -0.4901,0.6395 -1.0797,1.1242 -1.7688,1.4544 -0.6865,0.33 -1.4414,0.4952 -2.2666,0.4952 -0.8988,0 -1.7322,-0.2177 -2.4998,-0.6499 -0.7679,-0.4323 -1.3601,-1.014 -1.7819,-1.7425 -0.4221,-0.7285 -0.6344,-1.5514 -0.6344,-2.4608 0,-1.3782 0.4717,-2.5285 1.4151,-3.4483 0.9433,-0.9224 2.133,-1.3836 3.5716,-1.3836 1.5801,0 2.9007,0.6185 3.9648,1.8553 l 0.891,-0.6761 c -0.5636,-0.7154 -1.2657,-1.2707 -2.107,-1.6614 -0.8411,-0.3903 -1.7819,-0.5867 -2.8194,-0.5867 -1.976,0 -3.535,0.6576 -4.6749,1.9729 -0.9564,1.1086 -1.436,2.4502 -1.436,4.0198 0,1.6509 0.5791,3.0424 1.7374,4.1692 1.1608,1.1293 2.6124,1.6926 4.3577,1.6926 1.0533,0 2.0046,-0.207 2.8536,-0.6211 0.849,-0.4164 1.546,-0.9984 2.0886,-1.745 z m 6.0502,-0.6526 c 1.2867,0 2.3559,-0.4637 3.2023,-1.394 0.7702,-0.8465 1.1554,-1.8499 1.1554,-3.0082 0,-1.1636 -0.4062,-2.1801 -1.2208,-3.05 -0.8125,-0.8703 -1.8607,-1.3051 -3.1369,-1.3051 -1.2838,0 -2.3346,0.4348 -3.147,1.3051 -0.8149,0.8699 -1.2212,1.8864 -1.2212,3.05 0,1.1529 0.3853,2.1538 1.1557,3.0002 0.8465,0.9355 1.9182,1.402 3.2125,1.402 z m -0.005,-1.0533 c -0.8934,0 -1.6588,-0.3277 -2.3008,-0.9853 -0.6418,-0.6577 -0.9616,-1.4545 -0.9616,-2.3871 0,-0.6001 0.1466,-1.1611 0.4377,-1.6824 0.2934,-0.519 0.6891,-0.9198 1.1869,-1.2027 0.4952,-0.2832 1.0428,-0.4246 1.6378,-0.4246 0.5947,0 1.1424,0.1414 1.6376,0.4246 0.4981,0.2829 0.8938,0.6837 1.1872,1.2027 0.2908,0.5213 0.4376,1.0823 0.4376,1.6824 0,0.9326 -0.3223,1.7294 -0.9669,2.3871 -0.642,0.6576 -1.4071,0.9853 -2.2955,0.9853 z m 6.3411,0.849 h 1.0693 v -1.4964 c 0.4323,0.5714 0.9093,0.9986 1.4306,1.2789 0.5241,0.2804 1.0928,0.4218 1.7085,0.4218 0.6264,0 1.182,-0.1573 1.6667,-0.4742 0.4847,-0.3172 0.8436,-0.7444 1.0744,-1.2815 0.2304,-0.5344 0.3458,-1.3703 0.3458,-2.505 v -4.2922 h -1.0692 v 3.9778 c 0,0.959 -0.0417,1.601 -0.1231,1.9233 -0.1309,0.5502 -0.3722,0.9644 -0.7259,1.2447 -0.3538,0.2778 -0.815,0.4167 -1.3836,0.4167 -0.6523,0 -1.2368,-0.2149 -1.7504,-0.6446 -0.5162,-0.4272 -0.8566,-0.9592 -1.0193,-1.5933 -0.1021,-0.4139 -0.1545,-1.1688 -0.1545,-2.2666 v -3.058 h -1.0693 z m 13.8016,-0.9068 -0.6919,-0.7127 c -0.5737,0.5556 -1.137,0.8334 -1.6846,0.8334 -0.3487,0 -0.6475,-0.1154 -0.8963,-0.3461 -0.2489,-0.2279 -0.3748,-0.4978 -0.3748,-0.8045 0,-0.2698 0.1024,-0.5292 0.3067,-0.773 0.2044,-0.2514 0.6367,-0.5448 1.2918,-0.883 0.7965,-0.4113 1.3391,-0.8124 1.6273,-1.1948 0.2804,-0.3878 0.4218,-0.8254 0.4218,-1.3101 0,-0.6866 -0.2412,-1.2657 -0.7231,-1.7428 -0.4821,-0.4742 -1.0851,-0.7126 -1.8082,-0.7126 -0.4822,0 -0.9408,0.1049 -1.381,0.3143 -0.4374,0.2098 -0.7991,0.4981 -1.0874,0.8674 l 0.6761,0.768 c 0.5476,-0.6186 1.1321,-0.9278 1.7478,-0.9278 0.4297,0 0.7965,0.1389 1.1004,0.4141 0.3016,0.275 0.4536,0.6001 0.4536,0.972 0,0.3067 -0.0998,0.5791 -0.2988,0.8204 -0.2018,0.2358 -0.6526,0.5317 -1.3547,0.8883 -0.7549,0.3878 -1.2685,0.7702 -1.5384,1.1475 -0.2724,0.3776 -0.4087,0.8073 -0.4087,1.292 0,0.6316 0.2177,1.1557 0.65,1.575 0.4348,0.4164 0.9825,0.6261 1.6455,0.6261 0.7704,0 1.546,-0.3693 2.3269,-1.1111 z m 1.7479,0.9068 h 1.0692 v -3.8965 c 0,-0.9514 0.0525,-1.6039 0.1545,-1.9628 0.1519,-0.511 0.4482,-0.9144 0.8804,-1.2106 0.4326,-0.296 0.9514,-0.4454 1.5514,-0.4454 0.6001,0 1.1084,0.144 1.5276,0.4323 0.4167,0.2909 0.7076,0.6682 0.8649,1.1398 0.1074,0.3223 0.1624,1.0038 0.1624,2.0467 v 3.8965 h 1.1004 v -4.093 c 0,-1.1506 -0.1335,-2.0151 -0.4033,-2.5968 -0.2674,-0.5845 -0.6736,-1.0403 -1.2133,-1.368 -0.54,-0.3302 -1.216,-0.4952 -2.031,-0.4952 -0.8147,0 -1.4936,0.165 -2.0384,0.4952 -0.5451,0.3277 -0.9539,0.7889 -1.2212,1.3785 -0.2698,0.5893 -0.4036,1.4777 -0.4036,2.6623 z m 9.5408,3.223 h 1.069 v -11.5716 h -1.069 z m 4.2319,-0.11 h 1.0689 v -3.113 h 1.6983 v -0.9278 h -1.6983 v -7.4208 h -1.0689 v 7.4208 h -1.4621 v 0.9278 h 1.4621 z m 8.3588,-2.9087 c 1.2866,0 2.3559,-0.4637 3.2023,-1.394 0.7702,-0.8465 1.1554,-1.8499 1.1554,-3.0082 0,-1.1636 -0.4062,-2.1801 -1.2209,-3.05 -0.8124,-0.8703 -1.8607,-1.3051 -3.1368,-1.3051 -1.2838,0 -2.3346,0.4348 -3.147,1.3051 -0.815,0.8699 -1.2212,1.8864 -1.2212,3.05 0,1.1529 0.3852,2.1538 1.1557,3.0002 0.8464,0.9355 1.9182,1.402 3.2125,1.402 z m -0.005,-1.0533 c -0.8935,0 -1.6589,-0.3277 -2.3009,-0.9853 -0.6418,-0.6577 -0.9615,-1.4545 -0.9615,-2.3871 0,-0.6001 0.1465,-1.1611 0.4377,-1.6824 0.2933,-0.519 0.6891,-0.9198 1.1868,-1.2027 0.4952,-0.2832 1.0429,-0.4246 1.6379,-0.4246 0.5947,0 1.1423,0.1414 1.6376,0.4246 0.498,0.2829 0.8937,0.6837 1.1871,1.2027 0.2908,0.5213 0.4377,1.0823 0.4377,1.6824 0,0.9326 -0.3223,1.7294 -0.9669,2.3871 -0.6421,0.6576 -1.4071,0.9853 -2.2955,0.9853 z m 5.9323,0.849 h 1.1007 v -1.2212 c 0.3274,0.4822 0.6735,0.8385 1.0375,1.0743 0.3643,0.2333 0.7444,0.3512 1.1373,0.3512 0.2987,0 0.6159,-0.0944 0.9538,-0.2829 l -0.5607,-0.9014 c -0.2253,0.097 -0.4138,0.1466 -0.5686,0.1466 -0.3589,0 -0.705,-0.1466 -1.0378,-0.4402 -0.3328,-0.2934 -0.5867,-0.7521 -0.7625,-1.3703 -0.1335,-0.4745 -0.199,-1.436 -0.199,-2.8826 v -2.8221 h -1.1007 z m 4.9816,0 h 1.069 v -8.3486 h -1.069 z m 1.0718,3.9149 h 1.6481 l -2.2587,-2.3584 h -1.0587 z m 10.5494,-3.9149 v -8.3486 h -1.0689 v 1.436 c -0.4507,-0.5477 -0.9539,-0.9593 -1.5146,-1.2317 -0.5581,-0.2724 -1.1715,-0.4087 -1.8343,-0.4087 -1.1792,0 -2.188,0.4272 -3.024,1.2812 -0.8359,0.857 -1.2526,1.8947 -1.2526,3.121 0,1.1976 0.4218,2.2246 1.2657,3.0764 0.841,0.8516 1.8553,1.2787 3.0424,1.2787 0.6837,0 1.3022,-0.144 1.8578,-0.4322 0.5528,-0.2883 1.0403,-0.7234 1.4596,-1.3077 v 1.5356 z m -4.3027,-0.8334 c -0.5972,0 -1.1503,-0.1466 -1.6534,-0.4402 -0.5057,-0.2909 -0.9065,-0.7022 -1.2053,-1.2317 -0.2988,-0.5292 -0.4482,-1.0899 -0.4482,-1.6821 0,-0.5845 0.1494,-1.1452 0.4507,-1.6798 0.3014,-0.5346 0.705,-0.951 1.2133,-1.2472 0.5085,-0.2988 1.0533,-0.4482 1.6353,-0.4482 0.5842,0 1.1423,0.1468 1.6665,0.4431 0.5266,0.2959 0.9303,0.6942 1.2132,1.1999 0.2829,0.5031 0.4246,1.0717 0.4246,1.7033 0,0.9618 -0.3172,1.7663 -0.9538,2.4134 -0.6342,0.6472 -1.4151,0.9695 -2.3429,0.9695 z m 19.8026,-3.3489 0.7784,-0.82 c -0.4981,-0.4247 -0.9669,-0.7966 -1.4046,-1.1189 0.2959,-0.2832 0.6917,-0.6684 1.1897,-1.1582 0.3852,-0.3906 0.7231,-0.7469 1.0114,-1.0692 h -1.5749 l -1.4987,1.5329 c -0.9408,-0.7494 -1.7033,-1.2421 -2.2929,-1.47 -0.5871,-0.2307 -1.2082,-0.3458 -1.8604,-0.3458 -0.8703,0 -1.5673,0.2488 -2.094,0.7466 -0.5267,0.4981 -0.7886,1.1188 -0.7886,1.8632 0,0.5607 0.1755,1.1242 0.5293,1.6875 0.3537,0.5635 1.0743,1.2761 2.1619,2.1382 -0.608,0.7494 -0.9983,1.3025 -1.1741,1.6588 -0.1729,0.3563 -0.2593,0.697 -0.2593,1.0219 0,0.5635 0.2174,1.0298 0.6499,1.3992 0.5004,0.4325 1.124,0.6474 1.8684,0.6474 0.4716,0 0.8988,-0.0944 1.2866,-0.2832 0.3878,-0.191 0.6837,-0.4453 0.8881,-0.7651 0.2044,-0.3197 0.3067,-0.6601 0.3067,-1.0193 0,-0.3773 -0.1335,-0.7809 -0.3983,-1.2078 -0.2673,-0.4298 -0.7939,-0.9749 -1.5774,-1.6404 l 1.7138,-1.7978 1.1188,-1.1318 c 0.5976,0.4507 1.0718,0.828 1.4202,1.1318 z m -4.9499,2.6413 c 0.5451,0.4247 0.959,0.8414 1.2342,1.2527 0.1939,0.2908 0.2909,0.5502 0.2909,0.7755 0,0.2597 -0.1259,0.485 -0.3799,0.6761 -0.2517,0.1888 -0.587,0.2832 -1.0063,0.2832 -0.3983,0 -0.7234,-0.097 -0.9748,-0.2909 -0.2489,-0.1967 -0.3748,-0.4271 -0.3748,-0.6919 0,-0.2044 0.0499,-0.3983 0.152,-0.5766 0.2517,-0.4348 0.6026,-0.9119 1.0587,-1.4281 z m -0.1494,-1.5066 c -0.9538,-0.7205 -1.58,-1.2917 -1.8762,-1.7189 -0.296,-0.4246 -0.4428,-0.8203 -0.4428,-1.1818 0,-0.4271 0.1809,-0.8073 0.5451,-1.1372 0.3643,-0.3277 0.8096,-0.4927 1.3363,-0.4927 0.4011,0 0.7914,0.0839 1.1766,0.2489 0.6052,0.2619 1.2943,0.7021 2.0727,1.3232 l -1.7818,1.8213 c -0.3068,0.3248 -0.65,0.7021 -1.0299,1.1372 z m 23.3192,3.9045 -0.8909,-0.684 c -0.4901,0.6395 -1.0797,1.1242 -1.7688,1.4544 -0.6866,0.33 -1.4414,0.4952 -2.2666,0.4952 -0.8989,0 -1.7322,-0.2177 -2.4999,-0.6499 -0.7679,-0.4323 -1.36,-1.014 -1.7818,-1.7425 -0.4221,-0.7285 -0.6344,-1.5514 -0.6344,-2.4608 0,-1.3782 0.4717,-2.5285 1.415,-3.4483 0.9434,-0.9224 2.1331,-1.3836 3.5717,-1.3836 1.58,0 2.9007,0.6185 3.9648,1.8553 l 0.8909,-0.6761 c -0.5635,-0.7154 -1.2656,-1.2707 -2.107,-1.6614 -0.841,-0.3903 -1.7818,-0.5867 -2.8193,-0.5867 -1.976,0 -3.5351,0.6576 -4.6749,1.9729 -0.9564,1.1086 -1.436,2.4502 -1.436,4.0198 0,1.6509 0.5791,3.0424 1.7373,4.1692 1.1608,1.1293 2.6124,1.6926 4.3577,1.6926 1.0534,0 2.0047,-0.207 2.8537,-0.6211 0.849,-0.4164 1.546,-0.9984 2.0885,-1.745 z m 10.408,-0.8569 v -8.3486 h -1.0689 v 1.436 c -0.4507,-0.5477 -0.9539,-0.9593 -1.5146,-1.2317 -0.5581,-0.2724 -1.1715,-0.4087 -1.8343,-0.4087 -1.1792,0 -2.188,0.4272 -3.024,1.2812 -0.8359,0.857 -1.2526,1.8947 -1.2526,3.121 0,1.1976 0.4218,2.2246 1.2657,3.0764 0.841,0.8516 1.8552,1.2787 3.0424,1.2787 0.6837,0 1.3022,-0.144 1.8578,-0.4322 0.5528,-0.2883 1.0403,-0.7234 1.4596,-1.3077 v 1.5356 z m -4.3027,-0.8334 c -0.5973,0 -1.1503,-0.1466 -1.6534,-0.4402 -0.5057,-0.2909 -0.9066,-0.7022 -1.2053,-1.2317 -0.2988,-0.5292 -0.4482,-1.0899 -0.4482,-1.6821 0,-0.5845 0.1494,-1.1452 0.4507,-1.6798 0.3013,-0.5346 0.705,-0.951 1.2132,-1.2472 0.5086,-0.2988 1.0534,-0.4482 1.6353,-0.4482 0.5843,0 1.1424,0.1468 1.6665,0.4431 0.5267,0.2959 0.9304,0.6942 1.2133,1.1999 0.2829,0.5031 0.4246,1.0717 0.4246,1.7033 0,0.9618 -0.3172,1.7663 -0.9539,2.4134 -0.6341,0.6472 -1.415,0.9695 -2.3428,0.9695 z m 6.7425,0.8334 h 1.0689 v -1.5356 c 0.4247,0.5843 0.9119,1.0194 1.465,1.3077 0.5527,0.2882 1.1687,0.4322 1.8499,0.4322 1.1871,0 2.2011,-0.4271 3.0449,-1.2787 0.8439,-0.8518 1.2657,-1.8788 1.2657,-3.0764 0,-1.2263 -0.4192,-2.264 -1.2552,-3.121 -0.8359,-0.854 -1.8448,-1.2812 -3.0265,-1.2812 -0.663,0 -1.2736,0.1389 -1.8318,0.4141 -0.5581,0.2775 -1.0613,0.6891 -1.512,1.2368 v -4.4966 h -1.0689 z m 4.3052,-0.8334 c -0.9303,0 -1.7109,-0.3223 -2.3453,-0.9695 -0.6367,-0.6471 -0.9536,-1.4516 -0.9536,-2.4134 0,-0.6316 0.1414,-1.2002 0.4243,-1.7033 0.2829,-0.5057 0.6891,-0.904 1.2158,-1.1999 0.5295,-0.2963 1.0877,-0.4431 1.6719,-0.4431 0.5766,0 1.1188,0.1494 1.6274,0.4482 0.5082,0.2962 0.9119,0.7126 1.2132,1.2472 0.3013,0.5346 0.4507,1.0953 0.4507,1.6798 0,0.5922 -0.1494,1.1529 -0.4482,1.6821 -0.2987,0.5295 -0.6996,0.9408 -1.2053,1.2317 -0.5031,0.2936 -1.0561,0.4402 -1.6509,0.4402 z m 14.7212,0.8334 v -8.3486 h -1.0689 v 1.436 c -0.4507,-0.5477 -0.9539,-0.9593 -1.5146,-1.2317 -0.5581,-0.2724 -1.1715,-0.4087 -1.8343,-0.4087 -1.1792,0 -2.188,0.4272 -3.024,1.2812 -0.8359,0.857 -1.2526,1.8947 -1.2526,3.121 0,1.1976 0.4218,2.2246 1.2657,3.0764 0.841,0.8516 1.8552,1.2787 3.0424,1.2787 0.6837,0 1.3022,-0.144 1.8578,-0.4322 0.5528,-0.2883 1.0403,-0.7234 1.4596,-1.3077 v 1.5356 z m -4.3027,-0.8334 c -0.5973,0 -1.1503,-0.1466 -1.6534,-0.4402 -0.5057,-0.2909 -0.9066,-0.7022 -1.2053,-1.2317 -0.2988,-0.5292 -0.4482,-1.0899 -0.4482,-1.6821 0,-0.5845 0.1494,-1.1452 0.4507,-1.6798 0.3013,-0.5346 0.705,-0.951 1.2132,-1.2472 0.5086,-0.2988 1.0534,-0.4482 1.6354,-0.4482 0.5842,0 1.1423,0.1468 1.6664,0.4431 0.5267,0.2959 0.9304,0.6942 1.2133,1.1999 0.2829,0.5031 0.4246,1.0717 0.4246,1.7033 0,0.9618 -0.3172,1.7663 -0.9539,2.4134 -0.6341,0.6472 -1.415,0.9695 -2.3428,0.9695 z m 14.8394,-0.9014 -0.8516,-0.5293 c -0.7389,0.9749 -1.7478,1.4621 -3.0265,1.4621 -1.0219,0 -1.8709,-0.3274 -2.5469,-0.9799 -0.6735,-0.6525 -1.0117,-1.444 -1.0117,-2.3768 0,-0.6078 0.1548,-1.179 0.4666,-1.7136 0.3092,-0.5346 0.7361,-0.9513 1.2787,-1.2472 0.5397,-0.2963 1.1477,-0.4431 1.8212,-0.4431 1.2314,0 2.2377,0.4876 3.0186,1.4621 l 0.8516,-0.5607 c -0.4008,-0.6001 -0.938,-1.0638 -1.6115,-1.3966 -0.6761,-0.3302 -1.4437,-0.4952 -2.306,-0.4952 -1.3258,0 -2.4239,0.4192 -3.2964,1.2552 -0.8725,0.8385 -1.3076,1.8552 -1.3076,3.0554 0,0.8045 0.2043,1.5537 0.6131,2.2456 0.4062,0.6917 0.9669,1.2317 1.6798,1.6195 0.7155,0.3877 1.512,0.5816 2.395,0.5816 0.5556,0 1.0902,-0.0839 1.6064,-0.2514 0.5136,-0.1678 0.951,-0.3881 1.3102,-0.6579 0.3617,-0.2699 0.6655,-0.6131 0.917,-1.0298 z m 2.4344,5.1621 c 0.2437,0 0.4507,-0.0864 0.6236,-0.2619 0.1729,-0.1729 0.2596,-0.3852 0.2596,-0.629 0,-0.2409 -0.0867,-0.4507 -0.2596,-0.6236 -0.1729,-0.1755 -0.3799,-0.2619 -0.6236,-0.2619 -0.241,0 -0.4454,0.0864 -0.6183,0.2619 -0.1729,0.1729 -0.2596,0.3827 -0.2596,0.6236 0,0.2438 0.0867,0.4561 0.2596,0.629 0.1729,0.1755 0.3773,0.2619 0.6183,0.2619 z m -0.5318,-3.4273 h 1.0689 v -8.3486 h -1.0689 z m 4.2318,3.113 h 1.069 v -3.113 h 1.6982 v -0.9278 h -1.6982 v -7.4208 h -1.069 v 7.4208 h -1.4621 v 0.9278 h 1.4621 z m 12.7165,-3.113 v -8.3486 h -1.0689 v 1.436 c -0.4507,-0.5477 -0.9539,-0.9593 -1.5146,-1.2317 -0.5581,-0.2724 -1.1715,-0.4087 -1.8343,-0.4087 -1.1792,0 -2.188,0.4272 -3.024,1.2812 -0.8359,0.857 -1.2526,1.8947 -1.2526,3.121 0,1.1976 0.4218,2.2246 1.2657,3.0764 0.841,0.8516 1.8553,1.2787 3.0424,1.2787 0.6837,0 1.3022,-0.144 1.8578,-0.4322 0.5528,-0.2883 1.0403,-0.7234 1.4596,-1.3077 v 1.5356 z m -4.3027,-0.8334 c -0.5972,0 -1.1503,-0.1466 -1.6534,-0.4402 -0.5057,-0.2909 -0.9065,-0.7022 -1.2053,-1.2317 -0.2988,-0.5292 -0.4482,-1.0899 -0.4482,-1.6821 0,-0.5845 0.1494,-1.1452 0.4507,-1.6798 0.3014,-0.5346 0.705,-0.951 1.2133,-1.2472 0.5085,-0.2988 1.0533,-0.4482 1.6353,-0.4482 0.5842,0 1.1423,0.1468 1.6665,0.4431 0.5266,0.2959 0.9303,0.6942 1.2132,1.1999 0.2829,0.5031 0.4246,1.0717 0.4246,1.7033 0,0.9618 -0.3172,1.7663 -0.9538,2.4134 -0.6341,0.6472 -1.4151,0.9695 -2.3429,0.9695 z m 14.8394,-0.9014 -0.8515,-0.5293 c -0.739,0.9749 -1.7479,1.4621 -3.0266,1.4621 -1.0219,0 -1.8708,-0.3274 -2.5469,-0.9799 -0.6735,-0.6525 -1.0117,-1.444 -1.0117,-2.3768 0,-0.6078 0.1548,-1.179 0.4666,-1.7136 0.3092,-0.5346 0.7361,-0.9513 1.2787,-1.2472 0.5397,-0.2963 1.1477,-0.4431 1.8213,-0.4431 1.2313,0 2.2376,0.4876 3.0186,1.4621 l 0.8515,-0.5607 c -0.4008,-0.6001 -0.938,-1.0638 -1.6115,-1.3966 -0.6761,-0.3302 -1.4437,-0.4952 -2.306,-0.4952 -1.3257,0 -2.4239,0.4192 -3.2964,1.2552 -0.8725,0.8385 -1.3076,1.8552 -1.3076,3.0554 0,0.8045 0.2044,1.5537 0.6131,2.2456 0.4062,0.6917 0.9669,1.2317 1.6798,1.6195 0.7155,0.3877 1.512,0.5816 2.395,0.5816 0.5556,0 1.0902,-0.0839 1.6064,-0.2514 0.5137,-0.1678 0.951,-0.3881 1.3102,-0.6579 0.3617,-0.2699 0.6656,-0.6131 0.917,-1.0298 z m 2.4344,5.1621 c 0.2438,0 0.4507,-0.0864 0.6236,-0.2619 0.1729,-0.1729 0.2597,-0.3852 0.2597,-0.629 0,-0.2409 -0.0868,-0.4507 -0.2597,-0.6236 -0.1729,-0.1755 -0.3798,-0.2619 -0.6236,-0.2619 -0.241,0 -0.4453,0.0864 -0.6182,0.2619 -0.173,0.1729 -0.2597,0.3827 -0.2597,0.6236 0,0.2438 0.0867,0.4561 0.2597,0.629 0.1729,0.1755 0.3772,0.2619 0.6182,0.2619 z m -0.5318,-3.4273 h 1.069 v -8.3486 h -1.069 z m 7.2635,0.2043 c 1.2867,0 2.3559,-0.4637 3.2023,-1.394 0.7702,-0.8465 1.1554,-1.8499 1.1554,-3.0082 0,-1.1636 -0.4062,-2.1801 -1.2209,-3.05 -0.8124,-0.8703 -1.8606,-1.3051 -3.1368,-1.3051 -1.2838,0 -2.3346,0.4348 -3.147,1.3051 -0.815,0.8699 -1.2212,1.8864 -1.2212,3.05 0,1.1529 0.3852,2.1538 1.1557,3.0002 0.8464,0.9355 1.9182,1.402 3.2125,1.402 z m -0.005,-1.0533 c -0.8935,0 -1.6588,-0.3277 -2.3009,-0.9853 -0.6417,-0.6577 -0.9615,-1.4545 -0.9615,-2.3871 0,-0.6001 0.1466,-1.1611 0.4377,-1.6824 0.2934,-0.519 0.6891,-0.9198 1.1868,-1.2027 0.4953,-0.2832 1.0429,-0.4246 1.6379,-0.4246 0.5947,0 1.1424,0.1414 1.6376,0.4246 0.498,0.2829 0.8937,0.6837 1.1871,1.2027 0.2909,0.5213 0.4377,1.0823 0.4377,1.6824 0,0.9326 -0.3223,1.7294 -0.9669,2.3871 -0.642,0.6576 -1.4071,0.9853 -2.2955,0.9853 z m 0.5292,4.7639 h 1.6484 l -2.2589,-2.3584 h -1.0585 z m 5.8119,-3.9149 h 1.0692 v -1.4964 c 0.4323,0.5714 0.9094,0.9986 1.4307,1.2789 0.5241,0.2804 1.0927,0.4218 1.7084,0.4218 0.6265,0 1.1821,-0.1573 1.6668,-0.4742 0.4847,-0.3172 0.8436,-0.7444 1.0743,-1.2815 0.2305,-0.5344 0.3459,-1.3703 0.3459,-2.505 v -4.2922 h -1.0693 v 3.9778 c 0,0.959 -0.0416,1.601 -0.123,1.9233 -0.131,0.5502 -0.3722,0.9644 -0.726,1.2447 -0.3537,0.2778 -0.8149,0.4167 -1.3835,0.4167 -0.6523,0 -1.2368,-0.2149 -1.7504,-0.6446 -0.5162,-0.4272 -0.8567,-0.9592 -1.0194,-1.5933 -0.102,-0.4139 -0.1545,-1.1688 -0.1545,-2.2666 v -3.058 h -1.0692 z"
         style="fill:#000000;fill-opacity:1;fill-rule:nonzero;stroke:none"
         id="path143"
         inkscape:connector-curvature="0" />
    </g>
  </g>
</svg>
