<?xml version="1.0" encoding="UTF-8" standalone="no"?>
<!-- Generator: Adobe Illustrator 19.0.0, SVG Export Plug-In . SVG Version: 6.00 Build 0)  -->

<svg
   xmlns:dc="http://purl.org/dc/elements/1.1/"
   xmlns:cc="http://creativecommons.org/ns#"
   xmlns:rdf="http://www.w3.org/1999/02/22-rdf-syntax-ns#"
   xmlns:svg="http://www.w3.org/2000/svg"
   xmlns="http://www.w3.org/2000/svg"
   xmlns:sodipodi="http://sodipodi.sourceforge.net/DTD/sodipodi-0.dtd"
   xmlns:inkscape="http://www.inkscape.org/namespaces/inkscape"
   version="1.1"
   id="Capa_1"
   x="0px"
   y="0px"
   viewBox="0 0 512 512"
   style="enable-background:new 0 0 512 512;"
   xml:space="preserve"
   sodipodi:docname="folder.svg"
   inkscape:version="0.92.3 (2405546, 2018-03-11)"><metadata
   id="metadata55"><rdf:RDF><cc:Work
       rdf:about=""><dc:format>image/svg+xml</dc:format><dc:type
         rdf:resource="http://purl.org/dc/dcmitype/StillImage" /></cc:Work></rdf:RDF></metadata><defs
   id="defs53">
	
	
	
	
	
	
</defs><sodipodi:namedview
   pagecolor="#ffffff"
   bordercolor="#666666"
   borderopacity="1"
   objecttolerance="10"
   gridtolerance="10"
   guidetolerance="10"
   inkscape:pageopacity="0"
   inkscape:pageshadow="2"
   inkscape:window-width="1366"
   inkscape:window-height="713"
   id="namedview51"
   showgrid="false"
   inkscape:zoom="0.32593203"
   inkscape:cx="388.69416"
   inkscape:cy="141.53992"
   inkscape:window-x="0"
   inkscape:window-y="27"
   inkscape:window-maximized="1"
   inkscape:current-layer="Capa_1" />
<path
   inkscape:connector-curvature="0"
   id="path2"
   d="M 403.833,456.533 H 21.89 c -4.155,0 -8.074,-1.935 -10.6,-5.234 C 8.764,448 7.918,443.712 9.003,439.701 L 95.749,201.867 C 97.323,196.045 102.605,192 108.636,192 h 381.943 c 8.79,0 12.887,8.4 12.887,16.833 L 416.72,446.667 c -1.573,5.822 -6.855,9.866 -12.887,9.866 z"
   style="fill:#fffba5;fill-opacity:1" /><path
   inkscape:connector-curvature="0"
   id="path4"
   d="M 378.233,456.533 H 21.89 c -4.155,0 -8.074,-1.935 -10.6,-5.234 C 8.764,448 7.918,443.712 9.003,439.701 L 95.749,201.867 C 97.323,196.045 102.605,192 108.636,192 h 356.343 c 8.79,0 12.887,8.4 12.887,16.833 L 391.12,446.667 c -1.573,5.822 -6.855,9.866 -12.887,9.866 z"
   style="fill:#ffec00;fill-opacity:1" /><path
   inkscape:connector-curvature="0"
   id="path6"
   d="M 437.483,115.2 H 221.867 L 179.2,55.466 H 23.317 c -3.921,0 -7.681,1.557 -10.454,4.33 -2.773,2.773 -4.33,6.533 -4.33,10.454 v 364.609 c 0.591,0.021 1.175,0.05 1.753,0.087 L 95.749,201.867 c 1.573,-5.823 6.856,-9.868 12.887,-9.867 h 343.63 v -62.017 c 0,-3.921 -1.557,-7.681 -4.33,-10.454 -2.773,-2.773 -6.532,-4.33 -10.453,-4.329 z"
   style="fill:#fff26c;fill-opacity:1" /><path
   inkscape:connector-curvature="0"
   id="path8"
   d="M 411.883,115.2 H 221.867 L 179.2,55.466 H 23.317 c -3.921,0 -7.681,1.557 -10.454,4.33 -2.773,2.773 -4.33,6.533 -4.33,10.454 v 364.609 c 0.591,0.021 1.175,0.05 1.753,0.087 L 95.749,201.867 c 1.573,-5.823 6.856,-9.868 12.887,-9.867 h 318.03 v -62.017 c 0,-3.921 -1.557,-7.681 -4.33,-10.454 -2.773,-2.773 -6.532,-4.33 -10.453,-4.329 z"
   style="fill:#ffbb00;fill-opacity:1" /><path
   inkscape:connector-curvature="0"
   id="path10"
   d="M 34.133,55.466 H 31.15 c -3.921,0 -7.681,1.557 -10.454,4.329 -2.773,2.772 -4.33,6.533 -4.33,10.454 v 364.609 c 0.591,0.021 1.176,0.05 1.753,0.087 l 16.013,-46.679 v -332.8 z"
   style="fill:#ffeb1e;fill-opacity:1" /><g
   id="g16"
   style="fill:#000000;fill-opacity:1">
		<path
   inkscape:connector-curvature="0"
   id="path12"
   d="M 403.833,465.066 H 21.892 c -6.813,0 -13.238,-3.173 -17.379,-8.583 -4.141,-5.41 -5.526,-12.441 -3.746,-19.017 L 87.734,198.941 c 2.752,-9.233 11.271,-15.538 20.905,-15.475 H 490.58 c 12.413,0 21.421,10.667 21.421,25.367 0,0.998 -0.175,1.988 -0.517,2.925 l -86.746,237.833 c -2.753,9.233 -11.271,15.539 -20.905,15.475 z M 108.638,200.533 c -2.174,0.004 -4.078,1.461 -4.65,3.558 L 17.021,442.625 c -0.147,1.256 0.232,2.516 1.046,3.483 0.901,1.204 2.321,1.906 3.825,1.892 h 381.942 c 2.174,-0.004 4.078,-1.461 4.65,-3.558 l 86.379,-236.917 c -0.212,-2.333 -1.042,-6.992 -4.283,-6.992 H 108.638 Z"
   style="fill:#000000;fill-opacity:1" />
		<path
   inkscape:connector-curvature="0"
   id="path14"
   d="m 10.292,443.483 c -0.204,0 -0.408,-0.009 -0.617,-0.025 l -1.5,-0.075 C 3.605,443.192 -0.001,439.432 0,434.858 V 70.25 C 0.014,57.378 10.445,46.947 23.317,46.933 H 179.2 c 2.756,0.002 5.343,1.333 6.946,3.575 l 40.112,56.158 h 211.225 c 12.872,0.014 23.303,10.445 23.317,23.317 V 192 c 10e-4,2.263 -0.898,4.434 -2.499,6.035 -1.6,1.6 -3.771,2.499 -6.035,2.499 H 108.638 c -2.174,0.004 -4.078,1.461 -4.65,3.558 L 18.3,437.891 c -1.235,3.358 -4.431,5.589 -8.008,5.592 z M 23.317,64 c -3.451,0.003 -6.247,2.799 -6.25,6.25 v 321.425 l 70.671,-192.75 c 2.757,-9.225 11.272,-15.523 20.9,-15.458 h 335.095 v -53.483 c -0.003,-3.451 -2.799,-6.247 -6.25,-6.25 H 221.867 c -2.757,-0.002 -5.343,-1.333 -6.946,-3.575 L 174.808,64 Z"
   style="fill:#000000;fill-opacity:1" />
	</g>
<g
   id="g20">
</g>
<g
   id="g22">
</g>
<g
   id="g24">
</g>
<g
   id="g26">
</g>
<g
   id="g28">
</g>
<g
   id="g30">
</g>
<g
   id="g32">
</g>
<g
   id="g34">
</g>
<g
   id="g36">
</g>
<g
   id="g38">
</g>
<g
   id="g40">
</g>
<g
   id="g42">
</g>
<g
   id="g44">
</g>
<g
   id="g46">
</g>
<g
   id="g48">
</g>
</svg>